<?xml version="1.0" encoding="utf-8"?>
<!-- Generator: Adobe Illustrator 25.2.3, SVG Export Plug-In . SVG Version: 6.00 Build 0)  -->
<svg version="1.1" id="Ebene_1" xmlns:serif="http://www.serif.com/"
	 xmlns="http://www.w3.org/2000/svg" xmlns:xlink="http://www.w3.org/1999/xlink" x="0px" y="0px" viewBox="0 0 1920 1080"
	 style="enable-background:new 0 0 1920 1080;" xml:space="preserve">
<style type="text/css">
	.st0{fill:#FFFFFF;}
</style>
<g>
	<path class="st0" d="M960,0C813.3,0,795,0.6,737.4,3.3C679.9,5.9,640.6,15,606.3,28.4c-35.5,13.8-65.6,32.3-95.6,62.3
		c-30,30-48.5,60.1-62.3,95.6c-13.4,34.3-22.5,73.6-25.1,131.1c-2.6,57.6-3.2,76-3.2,222.6c0,146.7,0.6,165,3.2,222.6
		c2.6,57.5,11.7,96.7,25.1,131.1c13.8,35.5,32.3,65.6,62.3,95.6c30,30,60.1,48.5,95.6,62.3c34.3,13.3,73.6,22.5,131.1,25.1
		c57.6,2.6,76,3.2,222.6,3.2c146.7,0,165-0.6,222.6-3.2c57.5-2.6,96.7-11.8,131.1-25.1c35.5-13.8,65.6-32.3,95.6-62.3
		c30-30,48.5-60.1,62.3-95.6c13.3-34.3,22.5-73.6,25.1-131.1c2.6-57.6,3.2-76,3.2-222.6c0-146.7-0.6-165-3.2-222.6
		c-2.6-57.5-11.8-96.7-25.1-131.1c-13.8-35.5-32.3-65.6-62.3-95.6c-30-30-60.1-48.5-95.6-62.3c-34.3-13.4-73.6-22.5-131.1-25.1
		C1125,0.6,1106.7,0,960,0L960,0z M960,97.3c144.2,0,161.3,0.5,218.2,3.1c52.6,2.4,81.2,11.2,100.3,18.6
		c25.2,9.8,43.2,21.5,62.1,40.4c18.9,18.9,30.6,36.9,40.4,62.1c7.4,19,16.2,47.6,18.6,100.3c2.6,56.9,3.1,74,3.1,218.2
		c0,144.2-0.6,161.3-3.1,218.2c-2.4,52.6-11.2,81.2-18.6,100.3c-9.8,25.2-21.5,43.2-40.4,62.1c-18.9,18.9-36.9,30.6-62.1,40.4
		c-19,7.4-47.6,16.2-100.3,18.6c-56.9,2.6-74,3.1-218.2,3.1c-144.2,0-161.3-0.6-218.2-3.1c-52.6-2.4-81.2-11.2-100.3-18.6
		c-25.2-9.8-43.2-21.5-62.1-40.4c-18.9-18.9-30.6-36.9-40.4-62.1c-7.4-19-16.2-47.6-18.6-100.3c-2.6-56.9-3.1-74-3.1-218.2
		c0-144.2,0.5-161.3,3.1-218.2c2.4-52.6,11.2-81.2,18.6-100.3c9.8-25.2,21.5-43.2,40.4-62.1c18.9-18.9,36.9-30.6,62.1-40.4
		c19-7.4,47.6-16.2,100.3-18.6C798.7,97.8,815.8,97.3,960,97.3L960,97.3z"/>
	<path class="st0" d="M960,720c-99.4,0-180-80.6-180-180c0-99.4,80.6-180,180-180c99.4,0,180,80.6,180,180
		C1140,639.4,1059.4,720,960,720z M960,262.7c-153.1,0-277.3,124.1-277.3,277.3c0,153.1,124.1,277.3,277.3,277.3
		c153.1,0,277.3-124.1,277.3-277.3C1237.3,386.9,1113.1,262.7,960,262.7z"/>
	<path class="st0" d="M1313.1,251.7c0,35.8-29,64.8-64.8,64.8c-35.8,0-64.8-29-64.8-64.8c0-35.8,29-64.8,64.8-64.8
		C1284,186.9,1313.1,216,1313.1,251.7L1313.1,251.7z"/>
</g>
</svg>
