<?xml version="1.0" encoding="utf-8"?>
<!-- Generator: Adobe Illustrator 25.2.3, SVG Export Plug-In . SVG Version: 6.00 Build 0)  -->
<svg version="1.1" id="Ebene_1" xmlns:serif="http://www.serif.com/"
	 xmlns="http://www.w3.org/2000/svg" xmlns:xlink="http://www.w3.org/1999/xlink" x="0px" y="0px" viewBox="0 0 1920 1080"
	 style="enable-background:new 0 0 1920 1080;" xml:space="preserve">
<style type="text/css">
	.st0{fill:#FFFFFF;}
	.st1{fill:#04070B;}
	.st2{display:none;fill:#FFFFFF;}
</style>
<g>
	<path class="st0" d="M1327.9,0c95,0,172.1,77,172.1,172.1v735.8c0,95-77.1,172.1-172.1,172.1H592.1c-95,0-172.1-77.1-172.1-172.1
		V172.1C420,77,497.1,0,592.1,0L1327.9,0L1327.9,0z"/>
	<path class="st1" d="M964,911.3c-2,0-4-0.1-6-0.2h0c-1.3,0.1-2.6,0.2-3.9,0.2c-46.9,0-77-21.3-106-41.8
		c-20.1-14.2-39-27.6-61.4-31.3c-10.9-1.8-21.7-2.7-32.2-2.7c-18.9,0-33.8,2.9-44.7,5c-6.6,1.3-12.3,2.4-16.6,2.4
		c-4.5,0-9.4-1-11.6-8.3c-1.9-6.3-3.2-12.4-4.5-18.3c-3.3-15.2-5.7-24.6-12.1-25.6c-74.3-11.5-95.6-27.1-100.4-38.2
		c-0.7-1.6-1.1-3.2-1.1-4.8c-0.2-4.3,2.8-8,7-8.7C684.7,720.2,735.9,603.4,738,598.4c0.1-0.1,0.1-0.3,0.2-0.4
		c7-14.2,8.4-26.5,4.1-36.6c-7.8-18.5-33.4-26.6-50.3-32c-4.1-1.3-8.1-2.6-11.2-3.8c-33.8-13.4-36.6-27.1-35.3-34.1
		c2.3-11.9,18.2-20.2,31-20.2c3.5,0,6.6,0.6,9.2,1.8c15.2,7.1,28.9,10.7,40.7,10.7c16.3,0,23.5-6.9,24.3-7.8
		c-0.4-7.7-0.9-15.8-1.5-24.1c-3.4-54-7.6-121.2,9.5-159.5c51.2-114.9,159.9-123.8,191.9-123.8c0.8,0,14.1-0.1,14.1-0.1l1.9,0
		c32.2,0,141,8.9,192.3,123.9c17.1,38.3,12.9,105.5,9.5,159.5l-0.1,2.3c-0.5,7.5-0.9,14.8-1.3,21.8c0.8,0.8,7.4,7.1,22.2,7.7h0
		c11.3-0.4,24.2-4,38.4-10.7c4.2-1.9,8.8-2.4,11.9-2.4c4.8,0,9.7,0.9,13.7,2.6l0.2,0.1c11.5,4.1,19,12.1,19.2,20.5
		c0.1,7.9-5.9,19.8-35.5,31.5c-3.1,1.2-7,2.5-11.2,3.8c-17,5.4-42.5,13.5-50.4,32c-4.3,10.1-2.9,22.4,4.1,36.6
		c0.1,0.1,0.1,0.3,0.2,0.4c2.1,5,53.3,121.7,167.7,140.6c4.2,0.7,7.2,4.5,7,8.7c-0.1,1.6-0.5,3.2-1.2,4.8
		c-4.7,11-26,26.7-100.3,38.2c-6.1,0.9-8.4,8.9-12.1,25.4c-1.3,6-2.7,12-4.5,18.2c-1.6,5.4-5,8-10.6,8h-0.9c-3.9,0-9.5-0.7-16.6-2.1
		c-12.6-2.5-26.7-4.7-44.7-4.7c-10.5,0-21.3,0.9-32.2,2.7c-22.3,3.7-41.3,17.1-61.3,31.3C1040.9,890.1,1010.8,911.3,964,911.3
		L964,911.3z"/>
	<path class="st2" d="M966.8,160.3L966.8,160.3c-0.7,0-1.4,0-2,0c0,0-13,0.1-14,0.1c-33.3,0-146.3,9.3-199.6,128.8
		c-17.9,40.2-13.6,108.5-10.2,163.3c0.4,6.5,0.8,13.2,1.2,19.7c-2.8,1.5-7.8,3.4-15.7,3.4c-10.6,0-23.1-3.3-37.2-9.9
		c-3.7-1.8-8-2.6-12.8-2.6c-16.5,0-36.2,10.8-39.3,27c-2.2,11.6,3,28.6,40.4,43.4c3.4,1.3,7.4,2.6,11.7,4
		c15.5,4.9,38.8,12.3,45.2,27.3c3.3,7.7,2,17.7-3.9,29.6c-0.1,0.3-0.3,0.5-0.4,0.8c-2.1,4.8-51.5,117.5-161.3,135.6
		c-8.4,1.4-14.5,8.9-14,17.5c0.1,2.5,0.7,5.1,1.8,7.5c8.2,19.3,43,33.4,106.3,43.2c2.1,2.9,4.3,13,5.7,19.1
		c1.3,6.1,2.7,12.3,4.6,18.9c1.9,6.5,6.9,14.3,19.6,14.3c5.1,0,11.2-1.2,18.2-2.6c10.5-2.1,25-4.9,43.1-4.9c10,0,20.4,0.9,30.9,2.6
		c20.4,3.4,37.8,15.7,57.9,29.9c28.8,20.3,61.4,43.4,110.9,43.4c1.4,0,2.7,0,4.1-0.1c1.6,0.1,3.7,0.1,5.9,0.1
		c49.6,0,82.1-23,110.9-43.4c20.1-14.2,37.5-26.5,57.9-29.9c10.4-1.7,20.8-2.6,30.9-2.6c17.2,0,30.9,2.2,43.1,4.6
		c7.6,1.5,13.8,2.3,18.2,2.3l0.5,0h0.5c9.4,0,16-5,18.7-14c1.9-6.5,3.3-12.6,4.6-18.8c1.3-6.1,3.5-16.2,5.6-19
		c63.3-9.8,98.1-23.9,106.3-43.1c1.1-2.5,1.7-5,1.8-7.6c0.5-8.5-5.6-16.1-14-17.5c-109.9-18.1-159.3-130.8-161.3-135.6
		c-0.1-0.3-0.2-0.6-0.4-0.8c-5.9-11.9-7.2-21.8-3.9-29.6c6.3-14.9,29.7-22.4,45.2-27.3c4.3-1.4,8.4-2.7,11.7-4
		c27.4-10.8,41.1-24.1,40.8-39.5c-0.2-12.1-9.6-22.9-24.6-28.2l0,0c-5-2.1-11-3.2-16.8-3.2c-4,0-9.9,0.5-15.5,3.1
		c-13,6.1-24.7,9.4-34.8,9.9c-6.7-0.3-11.1-2-13.6-3.4c0.3-5.6,0.7-11.3,1.1-17.3l0.1-2.3c3.5-54.9,7.8-123.2-10.2-163.4
		C1113.4,169.6,1000.2,160.3,966.8,160.3L966.8,160.3z M966.8,177.1c30.4,0,135.2,8.2,184.6,118.9c16.3,36.5,12.1,102.5,8.8,155.6
		c-0.5,8.4-1,16.6-1.5,24.4l-0.2,3.3l2.2,2.5c0.9,1,9.4,9.8,28.2,10.6l0.3,0l0.3,0c12.4-0.5,26.4-4.3,41.6-11.5
		c2.2-1.1,5.2-1.6,8.4-1.6c3.6,0,7.4,0.7,10.6,2l0.5,0.2c8,2.8,13.6,8.1,13.7,12.8c0,2.7-2,12.4-30.2,23.6
		c-2.8,1.1-6.4,2.2-10.6,3.6c-18.4,5.8-46.2,14.7-55.5,36.7c-5.3,12.4-3.8,27.1,4.3,43.5c3.3,7.8,55.8,126.1,174,145.5
		c0,0.5-0.2,1.2-0.5,1.9c-2,4.7-14.7,21-93.9,33.2c-12.4,1.9-15.4,15.8-19,32c-1.3,5.8-2.6,11.6-4.3,17.6c-0.5,1.8-0.6,1.9-2.6,1.9
		h-0.9c-3.5,0-8.9-0.7-15-1.9c-11.2-2.2-26.6-4.9-46.3-4.9c-11,0-22.3,1-33.6,2.8c-24.2,4-44,18-64.8,32.7
		c-28,19.8-57,40.3-101.2,40.3c-1.9,0-3.8-0.1-5.7-0.2l-0.5,0l-0.5,0c-1.1,0.1-2.2,0.1-3.3,0.1c-44.2,0-73.2-20.5-101.2-40.3
		c-20.9-14.8-40.6-28.7-64.8-32.7c-11.3-1.9-22.6-2.8-33.6-2.8c-19.6,0-35,3-46.3,5.2c-6.2,1.2-11.5,2.3-15,2.3
		c-2.9,0-2.9-0.2-3.5-2.2c-1.8-6-3.1-12-4.3-17.8c-3.5-16.2-6.6-30.1-19-32c-79.2-12.2-91.9-28.6-93.9-33.3
		c-0.3-0.7-0.4-1.4-0.5-1.9c118.2-19.5,170.6-137.7,174-145.5c8.1-16.5,9.6-31.1,4.3-43.5c-9.3-22-37.1-30.9-55.5-36.7
		c-4.2-1.3-7.9-2.5-10.6-3.6c-23.9-9.4-31.2-18.9-30.1-24.7c1.3-6.6,12.8-13.4,22.8-13.4c2.3,0,4.2,0.4,5.7,1.1
		c16.3,7.6,31.2,11.5,44.3,11.5c20.5,0,29.7-9.6,30.7-10.6l2.2-2.5l-0.2-3.3c-0.4-7.8-0.9-15.9-1.5-24.4
		c-3.3-53.1-7.5-119.1,8.8-155.5C815.7,185.7,920,177.2,950.8,177.2c0.8,0,14.1-0.1,14.1-0.1C965.5,177.1,966.1,177.1,966.8,177.1
		L966.8,177.1z"/>
</g>
</svg>
