<?xml version="1.0" encoding="utf-8"?>
<!-- Generator: Adobe Illustrator 25.2.3, SVG Export Plug-In . SVG Version: 6.00 Build 0)  -->
<svg version="1.1" id="Layer_1" xmlns="http://www.w3.org/2000/svg" xmlns:xlink="http://www.w3.org/1999/xlink" x="0px" y="0px"
	 viewBox="0 0 128 128" style="enable-background:new 0 0 128 128;" xml:space="preserve">
<style type="text/css">
	.st0{fill:#FFFFFF;}
</style>
<g>
	<polygon class="st0" points="54.1,76.7 80.9,62.6 54.1,48.5 	"/>
	<path class="st0" d="M104,0H24C10.7,0,0,10.7,0,24v80c0,13.3,10.7,24,24,24h80c13.3,0,24-10.7,24-24V24C128,10.7,117.3,0,104,0z
		 M112.8,78.2c-0.7,9.5-2.4,19.3-14.6,20.1c-22.8,1.3-45.6,1.3-68.4,0c-12.2-0.7-13.9-10.5-14.6-20.1c-0.7-9.5-0.7-19,0-28.4
		c0.7-9.5,2.4-19.3,14.6-20.1c22.8-1.3,45.6-1.3,68.4,0c12.2,0.7,13.9,10.5,14.6,20.1C113.5,59.3,113.5,68.7,112.8,78.2z"/>
</g>
</svg>
