<?xml version="1.0" encoding="utf-8"?>
<!-- Generator: Adobe Illustrator 25.1.0, SVG Export Plug-In . SVG Version: 6.00 Build 0)  -->
<svg version="1.1" id="Ebene_1" xmlns="http://www.w3.org/2000/svg" xmlns:xlink="http://www.w3.org/1999/xlink" x="0px" y="0px"
	 viewBox="0 0 174 205" style="enable-background:new 0 0 174 205;" xml:space="preserve">
<style type="text/css">
	.st0{clip-path:url(#SVGID_2_);fill:#04070B;}
	.st1{clip-path:url(#SVGID_4_);fill:#04070B;}
</style>
<g>
	<defs>
		<rect id="SVGID_1_" width="174" height="205"/>
	</defs>
	<clipPath id="SVGID_2_">
		<use xlink:href="#SVGID_1_"  style="overflow:visible;"/>
	</clipPath>
	<path class="st0" d="M53.47,73.27c0.22-0.42,2.13-4.56,4.63-8.11c1.25-1.77,2.65-3.36,3.81-4.37c1.16-1.01,2.01-1.5,2.01-1.5
		c1.1-0.74,2.31-1.26,3.55-1.43c0.31-0.04,0.62-0.09,0.94-0.07c0.31-0.01,0.63,0,0.94,0.06l0.47,0.06l0.47,0.13l0.94,0.26
		c2.49,0.93,4.76,2.64,6.73,4.6c2.6,2.24,4.84,4.98,6.74,7.94c-1.39-2.58-3.03-5.03-4.96-7.24c-1.93-2.2-4.14-4.2-6.74-5.56
		c-2.09-1.01-4.51-1.55-6.74-0.83c-2.24,0.65-4.13,2.17-5.7,3.91c-1.58,1.75-2.88,3.73-4.03,5.79
		C55.37,68.94,54.38,71.09,53.47,73.27"/>
	<path class="st0" d="M79.52,62.24c5.34,5.89,8.9,13.31,10.12,21.06c-0.61-2.4-1.47-4.72-2.5-6.94
		C85.55,71.3,83.03,66.43,79.52,62.24"/>
	<path class="st0" d="M72.32,178.41l-0.37,1.16l-0.4,1.11l-0.93,2.31c-0.63,1.53-1.3,3.02-2.02,4.47c-0.73,1.44-1.53,2.82-2.41,4.08
		c-0.88,1.26-1.88,2.39-2.96,3.13c-1.08,0.76-2.14,1.07-3.2,0.92c-0.58-0.07-1.75-0.88-2.6-1.92c-1.79-2.12-3-4.98-3.63-7.93
		c-0.65-2.96-0.78-6.06-0.5-9.14c0.04-0.77,0.15-1.54,0.28-2.31c0.11-0.76,0.23-1.53,0.4-2.34c0.31-1.59,0.68-3.19,1.05-4.79
		c1.04-4.75,2.31-9.55,3.36-14.52c0.88-4.25,1.61-8.73,1.68-13.26c0.12-4.71-0.03-9.69-1.15-14.62c-0.56-2.45-1.32-4.83-2.19-7.11
		c-0.04-0.11-0.09-0.21-0.13-0.32c-0.48,2.07-1.29,3.99-1.88,5.85c0.45,1.48,0.84,2.98,1.12,4.51c0.62,3.28,0.81,6.62,0.84,9.96
		c0.07,3.33-0.17,6.68-0.66,9.98c-0.97,6.61-2.71,13.06-3.98,19.58c-0.64,3.26-1.22,6.53-1.33,9.82c-0.11,3.28,0.2,6.59,1.08,9.73
		c0.2,0.79,0.51,1.55,0.77,2.32c0.34,0.74,0.61,1.51,1.02,2.21c0.73,1.44,1.67,2.78,2.78,3.91c0.55,0.57,1.17,1.06,1.82,1.45
		c0.32,0.21,0.67,0.32,1,0.46c0.34,0.07,0.66,0.17,1.05,0.13c1.5,0.04,2.93-0.6,4.12-1.59c2.41-2.01,3.98-5,5.35-7.94
		c0.67-1.49,1.27-3.03,1.85-4.58c0.58-1.57,1.13-3.08,1.53-4.67c1.61-6.38,2.67-12.97,3.85-19.52
		C75.49,165.48,74.18,172.11,72.32,178.41"/>
	<path class="st0" d="M55.76,134.24c-0.01,0.39-0.03,1.57-0.13,3.35c-0.1,1.79-0.24,4.14-0.68,6.84
		c-0.83,5.42-2.87,12.19-4.77,19.04c-0.47,1.72-0.92,3.44-1.33,5.16c-0.41,1.72-0.79,3.39-1.05,5.14c-0.56,3.44-0.67,6.75-0.43,9.6
		c0.27,2.85,0.85,5.21,1.36,6.85c0.27,0.82,0.53,1.45,0.69,1.88c0.16,0.44,0.28,0.66,0.28,0.66c1.2,2.43,2.75,4.78,5.24,6.78
		c0.69,0.48,1.36,0.96,2.31,1.34c0.4,0.2,0.98,0.35,1.54,0.47c0.61,0.15,1.01,0.11,1.48,0.12c0.92,0.05,1.83-0.13,2.73-0.34
		c0.45-0.1,0.84-0.3,1.25-0.46c0.41-0.17,0.82-0.35,1.16-0.57c2.91-1.74,4.61-4.07,6-6.28c1.38-2.24,2.44-4.52,3.38-6.78
		c0.47-1.13,0.9-2.26,1.32-3.37c0.39-1.03,0.88-2.43,1.2-3.59c0.68-2.4,1.2-4.72,1.71-7.04c0.99-4.63,1.83-9.24,2.7-13.8
		c0.35-2.8,0.68-5.67,1.14-8.27c0.49-2.64,1.18-5.39,1.89-8.1c1.46-5.45,3.06-10.88,4.86-16.27c-1.85,4.35-3.55,8.74-5.18,13.18
		c-1.58,4.44-3.2,8.88-4.18,13.42c-1.01,4.6-1.9,9.27-2.88,13.92c-0.49,2.33-0.99,4.65-1.55,6.97c-0.56,2.32-1.13,4.63-1.94,6.93
		c-1.28,3.61-2.64,7.18-4.57,10.56c-0.97,1.67-2.09,3.31-3.57,4.67c-1.45,1.35-3.46,2.39-5.6,2.31c-0.51,0.04-1.1-0.11-1.61-0.28
		l-0.73-0.33c-0.24-0.12-0.44-0.27-0.66-0.41c-0.87-0.56-1.58-1.28-2.26-2.01c-1.31-1.5-2.29-3.23-3.07-5.01
		c-1.58-3.59-2.21-7.49-2.29-11.35c-0.08-3.88,0.55-7.71,1.3-11.43c0.75-3.74,1.64-7.44,2.48-11.13c0.84-3.69,1.61-7.39,2.08-11.12
		C55.87,141.78,55.9,138.01,55.76,134.24"/>
	<path class="st0" d="M94.04,96.44c-0.76-4.54-2.33-9.01-3.85-13.27c1.17,4.61,1.95,8.34,2.23,13.09L94.04,96.44z"/>
	<path class="st0" d="M90.64,114.88c-0.41,1.97-0.72,3.51-1.22,5.45c-0.54,2.03-1.2,4.01-2.03,5.92c-0.84,1.94-1.63,3.9-2.41,5.86
		c-1.55,3.93-3.03,7.88-4.4,11.89c-0.68,2.01-1.34,4.02-1.9,6.1c-0.55,2.08-0.98,4.15-1.42,6.22c0.53-2.05,1.05-4.1,1.69-6.15
		c0.65-2.04,1.39-4.02,2.16-5.99c1.54-3.94,3.2-7.82,4.92-11.67c0.86-1.92,1.74-3.84,2.65-5.72c0.94-1.94,1.72-3.99,2.37-6.05
		c0.55-1.81,0.98-3.96,1.44-5.76L90.64,114.88z"/>
	<path class="st0" d="M48.81,85.01c1.01-4.04,2.22-6.03,3.68-9.93c1.48-3.89,3.19-7.72,5.49-11.21c1.15-1.75,2.48-3.38,4.07-4.76
		c1.59-1.36,3.53-2.43,5.67-2.65c2.15-0.22,4.26,0.49,6.11,1.46c1.87,0.98,3.55,2.3,5.05,3.77c-1.46-1.53-3.1-2.93-4.99-3.99
		c-0.45-0.3-0.95-0.51-1.45-0.73c-0.25-0.11-0.5-0.23-0.75-0.33l-0.79-0.24c-1.04-0.37-2.21-0.45-3.33-0.38
		c-2.29,0.17-4.39,1.28-6.09,2.67c-1.71,1.4-3.14,3.08-4.38,4.84c-0.9,1.32-1.71,2.69-2.45,4.09c-0.63,1.2-1.23,2.41-1.78,3.65
		c-1.2,2.67-2.24,5.4-3.17,8.15c-0.71,2.62-1.32,3.26-1.85,5.91L48.81,85.01z"/>
	<path class="st0" d="M54.27,125.09c-0.61-3.05-1.6-6.02-2.8-8.89c-0.64-1.54-1.36-3.04-2.04-4.56c-0.66-1.53-1.3-3.07-1.82-4.65
		c-1.07-3.16-1.77-6.46-1.93-9.8c-0.16-3.34,0.18-6.7,0.87-9.97c1-0.38,2-0.73,2.99-1.05c-0.76,4.03-1.07,8.06-0.52,11.91
		c0.52,3.86,1.83,7.55,3.59,11.19c0.2,0.5,0.41,1.01,0.63,1.51l0.68,1.57c0.48,1.1,0.95,2.21,1.38,3.35
		c0.24,0.62,0.47,1.26,0.69,1.9c2.3-9.98,5.54-23.8,7.57-29.43c0.84-2.35,6.81-15.19,7.22-31.44c-0.32-0.15-0.64-0.28-0.96-0.4
		l-0.94-0.26l-0.47-0.13l-0.47-0.06c-0.31-0.06-0.63-0.07-0.94-0.06c-0.32-0.02-0.62,0.03-0.94,0.07c-1.25,0.17-2.45,0.69-3.55,1.43
		c0,0-0.85,0.49-2.01,1.5c-1.16,1.01-2.56,2.6-3.81,4.37c-2.51,3.55-4.41,7.69-4.63,8.11c0.91-2.18,1.9-4.34,3.06-6.39
		c1.15-2.06,2.46-4.04,4.03-5.79c1.57-1.73,3.46-3.25,5.7-3.91c1.96-0.63,4.06-0.3,5.95,0.47c0-0.16,0-0.31,0-0.47
		c-1.42-0.56-2.95-0.88-4.49-0.72c-2.15,0.21-4.09,1.29-5.67,2.65c-1.59,1.38-2.92,3.02-4.07,4.76c-2.3,3.49-4.02,7.32-5.49,11.21
		C49.61,77.03,49.01,80.96,48,85l-1.55,0.38c0.53-2.65,1.14-5.29,1.85-7.91c0.93-2.76,1.97-5.49,3.17-8.15
		c0.55-1.23,1.15-2.45,1.78-3.65c0.74-1.4,1.55-2.77,2.45-4.09c1.24-1.76,2.67-3.44,4.38-4.84c1.7-1.39,3.8-2.5,6.09-2.67
		c1.12-0.07,2.29,0.01,3.33,0.38l0.79,0.24c0.18,0.07,0.35,0.15,0.52,0.23c0-4.16-0.38-8.51-1.32-12.96
		C64.71,19.23,51.55,4.62,37.4,2.82C15.6,0.05,11.95,18.03,10.29,25c-1.66,6.97-3.47,22.56-2.52,31.26
		c0.77,7.06,5.72,31.46,3.66,43.44c-2.07,12.01-7.64,33.39-8.7,46.5c-1.06,13.11,9.15,23.07,21.19,24.04
		c12.03,0.97,19.57-10.6,22.17-15.47c2.59-4.87,6.08-20.83,7.74-27.8C53.96,126.44,54.1,125.8,54.27,125.09"/>
</g>
<g>
	<defs>
		<rect id="SVGID_3_" width="174" height="205"/>
	</defs>
	<clipPath id="SVGID_4_">
		<use xlink:href="#SVGID_3_"  style="overflow:visible;"/>
	</clipPath>
	<path class="st1" d="M64.76,116.67c-0.07-0.04-0.22-0.07-0.36-0.07h-0.29c-0.18,0-0.33-0.07-0.4-0.14
		c-0.07-0.14-0.18-0.22-0.25-0.22h-0.04c-0.29,0-0.86-0.79-0.97-1.33c-0.04-0.36-0.07-0.72-0.07-1.12c0-0.72,0.07-1.47,0.25-1.98
		c0.61-1.98,0.97-3.02,1.44-4.32c0.29-0.79,0.61-1.8,0.76-2.23c0.32-0.9,0.68-1.73,0.79-1.87c0.07-0.04,0.11-0.18,0.14-0.32
		c0-0.11,0.32-0.9,0.65-1.76c0.4-0.9,0.68-1.69,0.68-1.73c0-0.11,0.11-0.36,0.25-0.58c0.11-0.25,0.43-1.04,0.68-1.8
		c0.54-1.62,1.98-5.9,2.38-6.8c0.15-0.33,0.33-0.94,0.4-1.26l0.54-1.69c0.18-0.54,0.39-1.22,0.39-1.44c0.04-0.4,0.11-0.5,0.47-0.68
		c0.22-0.11,0.32-0.18,0.47-0.18l0.22,0.07c0.14,0.07,0.54,0.14,0.83,0.22c0.32,0.04,0.86,0.14,1.19,0.22
		c0.29,0.07,0.68,0.14,0.97,0.14l1.66-0.07l0.5,0.04c0.07,0.04,0.4,0.07,0.68,0.07l2.52,0.14c0.4,0,0.76-0.04,0.94-0.07l0.5-0.04
		c0.11,0,0.18,0,0.18,0.04c0.04,0.07,0.22,0.07,0.36,0.07h0.07c0.32,0,0.97,0.54,0.97,0.83v0.04c-0.07,0.43-0.83,0.97-1.26,0.97
		c-0.11,0-0.18-0.04-0.22-0.11c-0.07-0.18-0.36-0.29-0.72-0.29l-0.36,0.04c-0.11,0.04-0.25,0.04-0.43,0.04l-0.75-0.04
		c-0.18-0.04-0.4-0.04-0.58-0.04c-0.21,0-0.43,0-0.54,0.07c-0.11,0.04-0.25,0.07-0.39,0.07l-0.4-0.04c-0.65,0-2.66,0.18-2.81,0.29
		c-0.03,0-0.03,0.07-0.03,0.14l0.03,0.33c0,0.86-1.48,6.19-2.12,8.13l-0.58,1.69c0,0.04,0.11,0.04,0.32,0.04
		c0.25,0,0.65,0,1.19-0.07l1.26-0.07c0.36,0,0.61,0.04,0.79,0.07l0.86,0.18c0.22,0,0.43,0.14,0.5,0.25l0.29,0.32
		c0.07,0.04,0.11,0.07,0.11,0.11c0,0.07-0.07,0.14-0.18,0.29c-0.25,0.29-0.79,0.47-1.3,0.47c-0.18,0-0.36-0.03-0.5-0.07
		c-0.25-0.11-0.65-0.14-1.08-0.14c-0.58,0-1.26,0.07-1.91,0.25l-0.9,0.18c-0.5,1.51-0.83,2.23-1.04,2.99l-1.73,4.43L69,109.43
		c-0.18,0.65-0.43,1.33-0.5,1.55c-0.11,0.21-0.32,0.9-0.54,1.55c-1.04,3.31-1.04,3.38-2.12,3.89c-0.57,0.25-0.79,0.36-0.9,0.36
		C64.86,116.78,64.83,116.74,64.76,116.67"/>
	<path class="st1" d="M80.2,113.86c-0.14-0.04-0.43-0.11-0.65-0.11c-0.25,0-0.43-0.11-0.57-0.32c-0.11-0.18-0.32-0.32-0.47-0.32
		c-0.25,0-1.29-1.19-1.51-1.69c-0.07-0.18-0.18-0.32-0.25-0.32s-0.14-0.11-0.14-0.25c0-0.14-0.04-0.25-0.07-0.25
		c-0.11,0-0.47-1.22-0.65-2.34c-0.11-0.5-0.14-1.19-0.14-1.87c0-0.79,0.07-1.58,0.18-2.01c0.25-0.86,0.97-2.74,1.4-3.6
		c0.18-0.32,0.29-0.68,0.29-0.79c0-0.07,0.11-0.25,0.25-0.4c0.22-0.21,0.47-0.61,0.94-1.55c0.14-0.33,0.36-0.61,0.43-0.68
		c0.11-0.07,0.18-0.18,0.18-0.29c0-0.07-0.04-0.11-0.11-0.11h-0.14c-0.11,0-0.18-0.04-0.25-0.11c-0.07-0.07-0.07-0.14-0.07-0.18
		c0-0.11,0.04-0.21,0.18-0.39c0.14-0.22,0.43-0.47,0.65-0.61c0.18-0.11,0.36-0.29,0.36-0.36c0-0.11,0.18-0.25,0.4-0.32
		c0.72-0.32,1.4-0.47,2.01-0.47c0.54,0,1.04,0.11,1.48,0.32c0.36,0.14,0.72,0.29,0.83,0.29c0.25,0,1.73,0.79,2.12,1.19
		c1.01,0.9,1.33,1.3,1.48,1.83c0.07,0.32,0.21,0.61,0.25,0.69l0.4,0.9c0.22,0.61,0.29,1.01,0.29,2.02c0,1.15-0.03,1.3-0.36,1.87
		c-0.18,0.25-0.25,0.43-0.25,0.47l0.04,0.04l0.04-0.04l0.22-0.11c0,0.29-0.79,1.76-1.19,2.23c-0.43,0.5-0.68,0.94-1.33,2.2
		c-0.14,0.25-0.54,0.76-0.9,1.15c-0.4,0.4-0.72,0.9-0.76,1.08c-0.04,0.14-0.43,0.65-0.83,1.04c-0.43,0.4-0.79,0.83-0.79,0.94
		c0,0.29-0.22,0.54-0.9,0.97c-0.43,0.29-0.9,0.43-1.33,0.43C80.67,114.01,80.42,113.93,80.2,113.86 M82.36,108.71
		c0.58-0.58,1.04-1.15,1.04-1.19c0-0.07,0.29-0.43,0.65-0.76c0.33-0.33,0.76-0.94,0.94-1.3c0.18-0.36,0.4-0.65,0.43-0.65
		c0.04,0,0.29-0.36,0.5-0.76c0.25-0.39,0.5-0.72,0.54-0.75c0.07-0.04,0.11-0.11,0.11-0.22c0-0.07,0.14-0.32,0.32-0.58
		c0.36-0.4,0.36-0.47,0.36-1.62c-0.04-1.04-0.07-1.26-0.29-1.51c-0.14-0.14-0.39-0.5-0.54-0.83c-0.25-0.47-0.79-0.87-1.08-0.87
		c-0.07,0-0.14,0-0.18,0.07c-0.07,0.11-0.11,0.29-0.11,0.47c0,0.47-0.36,1.15-0.83,1.66c-0.22,0.25-0.68,1.04-1.01,1.73
		c-0.32,0.68-0.65,1.4-0.76,1.58c-0.11,0.22-0.18,0.61-0.18,0.9c0,0.29-0.04,0.58-0.11,0.65c-0.14,0.11-0.94,2.02-1.22,2.88
		c-0.14,0.4-0.22,1.15-0.22,1.73c0,0.36,0.04,0.61,0.11,0.65h0.07C81.1,110.01,81.35,109.76,82.36,108.71"/>
	<path class="st1" d="M90.86,114.19c-0.18-0.04-0.32-0.07-0.36-0.14c-0.11-0.14-0.79-0.57-1.04-0.65c-0.22-0.07-0.61-0.72-1.22-2.12
		c-0.22-0.5-0.29-0.76-0.29-1.04l0.04-0.39c0.07-0.68,0.54-2.02,1.15-3.46c0.22-0.54,0.54-1.47,0.76-2.09
		c0.18-0.61,0.5-1.55,0.72-2.05c0.25-0.54,0.5-1.15,0.58-1.4c0.18-0.58,0.9-2.34,1.19-2.84l0.32-0.72c0.04-0.25,0.11-0.32,0.25-0.32
		l0.18,0.04c0.9,0.14,1.51,0.36,1.51,0.43c0,0.07,0.22,0.11,0.5,0.11c0.47,0,0.58,0.11,0.94,0.5c0.47,0.54,0.94,1.65,0.94,2.12
		c-0.04,0.18-0.11,0.47-0.22,0.68c-0.14,0.18-0.32,0.65-0.43,1.04l-0.79,2.05c-0.58,1.4-0.68,1.84-0.86,2.7l-0.07,0.36
		c0,0.11,0.07,0.14,0.18,0.14c0.32,0,0.47-0.14,0.68-0.5l0.36-0.54c0.07-0.14,0.25-0.36,0.39-0.47c0.11-0.07,0.22-0.22,0.22-0.29
		c0-0.14,2.2-3.06,2.41-3.2c0.11-0.07,0.18-0.25,0.18-0.43c0.04-0.32,1.26-1.69,1.55-1.69c0.07,0,0.36-0.11,0.65-0.25
		c0.29-0.14,0.79-0.29,1.15-0.32l0.4-0.04c0.29,0,0.36,0.07,0.54,0.29c0.14,0.22,0.43,0.32,0.83,0.4c0.36,0.04,0.69,0.14,0.72,0.25
		c0.07,0.11,0.32,0.47,0.61,0.75c0.4,0.43,0.47,0.54,0.47,0.97v0.32c-0.04,0.43-0.18,1.12-0.43,1.73c-0.25,0.61-0.32,0.97-0.32,1.33
		l0.04,0.47c0,0.22-0.11,0.32-0.36,0.5c-0.22,0.18-0.54,0.25-0.86,0.25c-0.43,0-0.9-0.14-1.15-0.43c-0.18-0.18-0.47-0.29-0.68-0.29
		c-0.22,0-0.32-0.11-0.4-0.29c-0.04-0.18-0.18-0.47-0.29-0.68c-0.4-0.5-0.76-1.62-0.76-2.27v-0.07c0-0.36-0.07-0.58-0.21-0.58
		c-0.07,0-0.18,0.07-0.33,0.25l-0.65,0.65c-0.25,0.21-0.65,0.75-0.94,1.22c-1.69,2.38-2.01,2.88-2.19,2.99l-0.43,0.5
		c-0.07,0.15-0.32,0.47-0.5,0.76c-0.18,0.25-0.32,0.5-0.32,0.54l-0.61,0.72c-0.32,0.36-0.61,0.69-0.65,0.76
		c-0.15,0.32-0.68,1.08-0.76,1.08c-0.14,0-0.5,0.86-0.68,1.51c-0.04,0.25-0.22,0.61-0.32,0.83c-0.14,0.29-0.29,0.43-0.61,0.43
		L90.86,114.19z"/>
	<path class="st1" d="M108.06,114.69c-0.11-0.07-0.43-0.14-0.68-0.22c-0.58-0.11-1.15-0.65-1.44-1.4c-0.22-0.5-0.32-1.48-0.32-2.45
		c0-0.83,0.07-1.69,0.25-2.27l0.29-1.3c0.07-0.5,0.22-1.04,0.32-1.19c0.07-0.18,0.15-0.4,0.15-0.47v-0.04
		c0-0.25,0.54-2.23,1.01-3.67l0.33-1.19c0-0.07,0.21-0.75,0.5-1.51c0.25-0.76,0.5-1.4,0.5-1.51c0-0.07,0.14-0.32,0.32-0.58
		c0.21-0.29,0.36-0.43,0.54-0.43h0.04c0.14,0,0.32,0,0.4-0.07l0.14-0.04l0.68,0.14l0.43-0.04c0.14,0,0.29,0.04,0.36,0.07
		c0.07,0.04,0.15,0.04,0.22,0.04c0.07,0,0.18,0,0.25-0.04c0.11-0.07,0.18-0.07,0.22-0.07c0.03,0,0.07,0,0.07,0.07
		c0.04,0.04,0.11,0.07,0.18,0.07h0.11c0.22,0,0.5,0.18,1.08,0.65c0.11,0.07,0.22,0.43,0.29,0.76c0.04,0.18,0.07,0.32,0.07,0.47
		c0,0.18-0.03,0.36-0.14,0.58c-0.11,0.25-0.22,0.72-0.25,1.04c0,0.32-0.11,0.83-0.22,1.15c-0.11,0.25-0.18,0.54-0.18,0.72v0.07
		c0,0.11-0.04,0.29-0.11,0.32c-0.07,0.07-0.11,0.22-0.11,0.32v0.04c0,0.14-0.07,0.43-0.18,0.68c-0.18,0.61-0.79,2.74-0.94,3.38
		l-0.36,1.33c-0.14,0.58-0.21,0.94-0.21,1.15c0,0.14,0.04,0.18,0.07,0.18h0.04c0.07,0,0.22-0.25,0.32-0.5
		c0.11-0.25,0.22-0.47,0.29-0.5c0.04,0,0.47-0.68,0.97-1.55c0.54-0.86,1.01-1.55,1.08-1.55c0.04-0.04,0.07-0.11,0.07-0.22
		c0-0.07,0.11-0.29,0.22-0.5c0.14-0.22,0.47-0.79,0.72-1.33c0.25-0.54,0.65-1.15,0.83-1.44c0.18-0.22,0.32-0.47,0.32-0.54
		c0-0.04,0.11-0.25,0.25-0.43c0.14-0.22,0.32-0.32,0.61-0.32c0.29-0.04,0.47-0.11,0.75-0.43c0.58-0.58,2.09-1.26,3.24-1.44
		l0.93-0.07l0.32,0.04l0.25-0.04c0.25-0.07,0.5-0.11,0.68-0.11c0.36,0,0.65,0.11,0.9,0.36c0.4,0.32,0.58,0.61,0.58,1.08
		c0,0.29-0.07,0.69-0.22,1.23l-0.29,1.29v0.04c0,0.18-0.14,0.58-0.32,1.04c-0.18,0.5-0.4,1.04-0.43,1.22c0,0.18-0.18,0.61-0.36,0.97
		c-0.14,0.32-0.29,0.68-0.29,0.79v0.03c0,0.07-0.11,0.47-0.25,0.83c-0.14,0.4-0.25,0.72-0.25,0.79c0,0.07-0.18,0.47-0.4,0.93
		c-0.18,0.43-0.29,0.83-0.29,0.97v0.07c0,0.04,0.04,0.04,0.07,0.04c0.11,0,0.32-0.25,0.86-0.93c2.2-2.77,3.78-4.97,3.78-5.18v-0.04
		c0-0.11,0.25-0.5,0.5-0.9c0.29-0.4,0.54-0.83,0.61-0.94c0.07-0.11,0.29-0.22,0.47-0.25c0.21-0.07,0.47-0.25,0.68-0.54
		c0.18-0.25,0.4-0.47,0.43-0.51c0.07,0,0.36-0.36,0.68-0.76c0.65-0.9,0.76-0.93,2.88-1.29c0.25-0.04,0.5-0.04,0.79-0.04
		c0.61,0,1.19,0.07,1.4,0.25c0.07,0.07,0.21,0.36,0.32,0.65c0.07,0.21,0.11,0.36,0.11,0.58c0,0.22-0.04,0.5-0.14,0.97
		c-0.14,0.54-0.32,1.26-0.47,1.58c-0.11,0.33-0.22,0.79-0.25,1.04c-0.04,0.25-0.25,1.04-0.5,1.8c-0.22,0.72-0.5,1.65-0.58,2.02
		l-0.47,1.65c-0.18,0.61-0.29,0.94-0.29,1.12c0,0.14,0.04,0.18,0.14,0.18h0.04c0.11-0.04,0.18-0.07,0.18-0.14v-0.04
		c0-0.07,0.07-0.14,0.18-0.18c0.07,0,0.47-0.47,0.9-1.01c1.19-1.51,2.41-2.92,2.56-2.95c0.07,0,0.54-0.54,1.01-1.19l0.86-1.19
		c0.04,0.36,0.04,0.29,0.04,0.68c0,0.25-0.07,0.47-0.18,0.68c-0.43,0.65-1.3,1.8-1.4,1.84c-0.14,0-1.04,1.08-2.74,3.28
		c-0.18,0.25-0.43,0.47-0.54,0.5c-0.11,0.04-0.22,0.07-0.25,0.14c0,0.07-0.22,0.32-0.47,0.57s-0.43,0.54-0.43,0.61v0.04
		c0,0.11-0.18,0.32-0.4,0.5s-0.43,0.43-0.47,0.54c-0.07,0.22-1.26,0.54-1.91,0.54l-0.22-0.04c-0.22-0.07-0.54-0.18-0.72-0.29
		c-0.43-0.29-1.3-1.19-1.44-1.55c-0.03-0.14-0.11-0.25-0.18-0.25h-0.04c-0.14,0-0.21-0.54-0.21-1.12c0-0.61,0.07-1.33,0.21-1.58
		c0.07-0.07,0.11-0.32,0.15-0.58c0.04-0.47,0.22-1.04,0.76-2.59c0.43-1.19,0.65-2.02,0.65-2.38c0-0.11-0.04-0.18-0.11-0.18
		c-0.07,0-0.29,0.22-0.54,0.68c-0.36,0.65-2.05,3.06-2.59,3.71c-0.94,1.08-1.73,2.23-2.27,3.24c-0.72,1.26-1.4,2.2-1.66,2.27h-0.04
		c-0.11,0-0.29-0.11-0.4-0.22l-0.25-0.29c-0.29,0.43-0.47,0.54-0.47,0.76l0.07,0.21c0,0.04-0.03,0.04-0.07,0.04l-1.33,0.04
		l-0.54,0.04c-0.25,0-0.4-0.04-0.4-0.07c0-0.07-0.18-0.14-0.36-0.14h-0.14c-0.32,0-0.58-0.14-1.08-0.61
		c-0.43-0.36-0.47-0.47-0.54-1.26l-0.04-0.54c0-0.54,0.14-1.12,0.54-2.74c0.18-0.72,1.26-3.82,1.58-4.64
		c0.07-0.14,0.11-0.32,0.11-0.43v-0.04c0-0.14,0.07-0.32,0.18-0.43c0.22-0.25,0.32-0.58,0.32-0.72c0-0.07-0.04-0.11-0.07-0.11
		c-0.18,0.07-0.9,1.15-1.12,1.66c-0.11,0.22-0.29,0.5-0.47,0.61c-0.14,0.07-0.43,0.47-0.65,0.86c-0.36,0.72-1.4,2.34-2.45,3.82
		c-0.32,0.5-0.68,1.04-0.72,1.19l-0.25,0.43c-0.07,0.07-0.32,0.5-0.54,0.94c-0.36,0.68-0.61,1.12-0.72,1.12
		c-0.04,0-0.04-0.04-0.04-0.07v-0.04c0-0.18,0.29-0.76,0.61-1.22c0.14-0.18,0.25-0.4,0.25-0.47c0-0.07-0.03-0.07-0.07-0.07
		c-0.07,0-0.25,0.21-0.47,0.57c-0.18,0.29-0.58,0.9-0.94,1.33c-0.32,0.43-0.65,1.01-0.72,1.22l-0.11,0.43
		c-1.26,0.18-1.58,0.29-2.23,0.29C108.21,114.73,108.1,114.73,108.06,114.69"/>
	<path class="st1" d="M95.26,142.22c-0.15-0.04-0.76-0.07-1.37-0.11c-0.97,0-1.12,0-1.4-0.25c-0.22-0.11-0.61-0.4-0.97-0.58
		c-0.32-0.21-0.54-0.47-0.61-0.5c-1.01-0.76-1.3-2.12-1.37-2.77l-0.04-0.36c0-2.59,2.88-5.43,2.88-5.43h0.18
		c0.18,0,0.22,0.04,0.22,0.14v0.07c0,0.07,0.04,0.14,0.07,0.14c0,0.04-2.48,2.77-2.56,4.97v0.32c0,0.36,0,0.79,0.07,0.9
		c0.07,0.11,0.22,0.4,0.29,0.61c0.11,0.22,0.36,0.54,0.57,0.72c0.29,0.22,0.4,0.25,0.83,0.25h0.58c0.9-0.04,1.08-0.07,1.76-0.4
		c1.22-0.65,1.84-1.29,2.88-3.17c0.36-0.65,0.39-0.9,0.47-1.94l0.04-0.76c0-0.57-0.07-1.11-0.29-2.16
		c-0.18-1.01-0.25-1.66-0.25-2.09v-0.25c0.18-1.15,0.76-3.35,1.01-3.56c0.11-0.14,0.22-0.29,0.22-0.32c0-0.22,0.94-0.94,1.26-1.01
		c1.3-0.18,1.51-0.25,2.2-0.25c0.4,0,0.68,0.07,1.37,0.32c0.76,0.29,1.33,1.01,1.33,1.66c0.04,0.29,0.11,0.65,0.18,0.83
		c0.07,0.15,0.11,0.29,0.11,0.43c-0.04,0.36-0.14,0.58-0.21,0.86c-0.07,0.22-0.15,0.25-0.47,0.25h-0.36l0.04-1.12
		c0-0.76-0.15-1.4-0.43-1.65c-0.11-0.11-0.22-0.25-0.22-0.36c0-0.11-0.07-0.14-0.14-0.14c-0.15,0-0.36,0.07-0.58,0.25
		c-0.4,0.36-0.58,0.65-0.58,1.04l0.07,0.65c-0.11,0.69-0.25,1.3-0.25,3.46c0,0.68,0.04,1.3,0.07,1.58c0.39,1.94,0.61,2.81,0.61,4.1
		c0,0.32-0.04,0.61-0.07,0.79l-0.29,1.08c-0.18,0.65-0.5,1.19-1.26,1.94c-0.61,0.65-1.01,0.9-1.98,1.37
		c-0.61,0.29-0.94,0.36-1.44,0.4l-1.58,0.07C95.58,142.26,95.37,142.26,95.26,142.22"/>
	<path class="st1" d="M109.34,143.27c-0.29,0-0.54-0.07-1.04-0.29c-0.43-0.22-0.83-0.5-0.93-0.65c-0.07-0.14-0.22-0.25-0.32-0.25
		c-0.22,0-0.76-0.83-1.58-2.45c-0.47-0.97-0.65-1.48-0.76-2.2c-0.03-0.32-0.07-0.72-0.07-1.11c0-1.37,0.29-2.95,0.72-3.92
		c1.12-2.41,1.3-2.88,1.51-3.06c0.14-0.11,0.21-0.29,0.21-0.36c0-0.04,0.11-0.18,0.18-0.25c0.11-0.11,0.29-0.36,0.4-0.57
		c0.11-0.25,0.72-0.94,1.33-1.55c0.86-0.86,1.08-1.08,1.33-1.08l0.39,0.07c0.07,0,0.11-0.04,0.11-0.07l-0.07-0.22
		c0-0.22,0.25-0.32,0.76-0.32l0.58,0.04c1.19,0.07,2.66,0.4,2.84,0.58c0.07,0.07,0.22,0.11,0.36,0.11c0.11,0,0.36,0.21,0.61,0.43
		c0.29,0.32,0.43,0.61,0.54,1.19c0.07,0.4,0.11,1.01,0.11,1.55c0,0.5-0.04,0.93-0.11,1.01c-0.07,0.04-0.29,0.29-0.47,0.54
		c-0.18,0.22-0.36,0.4-0.43,0.4h-0.04c-0.04-0.04-0.11-0.47-0.11-0.97c0-0.93-0.29-1.98-0.58-1.98c-0.07,0-0.29,0.18-0.43,0.4
		c-0.18,0.22-0.43,0.54-0.61,0.68c-0.14,0.14-0.25,0.32-0.25,0.4c0,0.07-0.22,0.36-0.43,0.68c-0.25,0.29-0.5,0.76-0.58,1.04
		c-0.25,0.72-0.83,1.87-1.08,2.09c-0.22,0.14-0.68,1.12-0.68,1.37c0,0.07-0.04,0.14-0.11,0.14c-0.04,0.04-0.32,0.54-0.61,1.15
		c-0.47,0.9-0.54,1.26-0.68,2.34c-0.07,0.83-0.11,1.4-0.11,1.8c0,0.54,0.07,0.76,0.18,0.76c0.32,0,0.72-0.25,1.4-0.9
		c1.11-0.97,1.58-1.33,2.01-1.55c0.22-0.11,0.47-0.32,0.57-0.43c0.07-0.14,0.54-0.5,1.04-0.83c0.72-0.47,4.61-3.53,5-3.89
		c0.18-0.14,0.4-0.25,0.5-0.25c0.07,0,0.14-0.04,0.14-0.11c0-0.07,0.18-0.22,0.36-0.32c0.11-0.07,0.18-0.07,0.22-0.07l0.18,0.04H121
		c0.29,0,0.43,0.14,0.43,0.29c0,0.11-0.07,0.22-0.18,0.29c-0.14,0.07-0.79,0.57-0.79,0.68c0,0.07-0.18,0.29-0.36,0.43
		c-0.22,0.14-0.4,0.32-0.4,0.4c0,0.18-3.78,3.89-4.03,3.99c-0.18,0.14-0.86,0.79-1.58,1.58c-0.22,0.29-0.43,0.5-0.65,0.68
		c0,0.14-0.32,0.22-0.5,0.4c-0.72,0.79-0.94,0.47-1.04,0.79c-0.18,0.72-0.97,1.19-2.3,1.33H109.34z"/>
	<path class="st1" d="M128.24,143.66c-0.32-0.54-0.32-1.22-0.43-4.07c0-1.76,0.83-3.42,2.56-7.52v-0.04c0-0.03-0.07-0.07-0.11-0.07
		c-0.22,0-1.37,1.4-1.44,1.4c-0.29,0-0.65,0.47-1.44,1.22c-0.61,0.54-0.68,0.58-0.94,0.97c-0.79,1.15-2.38,2.63-2.81,3.71
		c-0.4,0.83-0.65,0.72-0.79,1.48l-0.36,1.15c-0.14,0.58-0.29,1.04-2.16,1.19c-0.43,0-0.65-0.11-1.15-0.5
		c-0.86-0.68-0.97-0.86-1.04-2.09l-0.03-0.79c0-1.12,0.43-1.98,1.11-4.14c0.47-1.87,0.72-2.3,1.15-3.31v-0.04
		c0-0.36,1.91-4.82,1.91-4.93c0-0.07,0.79-1.58,0.97-2.12c0.15-0.47,0.83-1.69,0.97-2.16c0.43-1.51,0.72-1.44,0.9-2.05
		c0.11-0.5,0.36-0.68,0.36-1.4l-0.04-1.04h0.54c0.83,0,1.62,0.9,2.02,0.9c0.43,0,1.51,1.33,1.51,2.63c0,0.79-0.25,1.76-0.79,3.1
		c-0.25,0.61-0.65,2.05-0.65,2.27c0,0.22-1.19,3.35-1.44,3.71c-0.18,0.22-0.43,1.08-0.94,2.34c-0.32,0.68-0.47,1.15-0.47,1.33
		c0,0.07,0,0.11,0.04,0.11c0.11,0,0.61-0.76,0.86-0.76c0.14,0,0.47-0.25,0.76-0.54l2.81-2.7c0.58-0.58,0.79-0.5,1.04-0.87
		c0.18-0.25,0.54-0.43,0.83-0.43c0.21,0,0.29,0.25,0.65,0.25c0.18,0,0.32,0.07,0.32,0.18c0,0.22,0.47,0.5,0.79,0.5h0.18
		c0.72,0,1.91,1.73,1.91,2.63c0,0.76-0.76,1.8-0.76,2.05c0,0.22-0.5,1.69-0.76,2.05c-0.25,0.4-1.08,2.45-1.37,2.81
		c-0.14,0.22-0.29,0.43-0.29,0.5v0.04c0,0.07-0.22,0.29-0.4,0.5c-0.97,0.79-1.33,1.22-1.4,1.48c-0.11,0.4-0.61,0.9-0.83,0.9h-0.11
		c-0.47,0-0.54,1.08-0.83,1.08C128.49,144.56,128.49,144.24,128.24,143.66"/>
	<path class="st1" d="M141.05,141.86c-0.14-0.04-0.43-0.11-0.65-0.11c-0.25,0-0.43-0.11-0.57-0.32c-0.11-0.18-0.32-0.32-0.47-0.32
		c-0.25,0-1.3-1.19-1.51-1.69c-0.07-0.18-0.18-0.32-0.25-0.32c-0.07,0-0.14-0.11-0.14-0.25c0-0.15-0.04-0.25-0.07-0.25
		c-0.11,0-0.47-1.22-0.65-2.34c-0.11-0.5-0.14-1.19-0.14-1.87c0-0.79,0.07-1.58,0.18-2.02c0.25-0.86,0.97-2.74,1.4-3.6
		c0.18-0.32,0.29-0.68,0.29-0.79c0-0.07,0.11-0.25,0.25-0.4c0.21-0.22,0.47-0.61,0.93-1.55c0.15-0.32,0.36-0.61,0.43-0.68
		c0.11-0.07,0.18-0.18,0.18-0.29c0-0.07-0.04-0.11-0.11-0.11h-0.14c-0.11,0-0.18-0.04-0.25-0.11c-0.07-0.07-0.07-0.15-0.07-0.18
		c0-0.11,0.04-0.22,0.18-0.4c0.14-0.22,0.43-0.47,0.65-0.61c0.18-0.11,0.36-0.29,0.36-0.36c0-0.11,0.18-0.25,0.39-0.32
		c0.72-0.32,1.4-0.47,2.02-0.47c0.54,0,1.04,0.11,1.47,0.32c0.36,0.14,0.72,0.29,0.83,0.29c0.25,0,1.73,0.79,2.12,1.19
		c1.01,0.9,1.33,1.3,1.48,1.83c0.07,0.32,0.22,0.61,0.25,0.68l0.4,0.9c0.21,0.61,0.29,1.01,0.29,2.01c0,1.15-0.04,1.3-0.36,1.87
		c-0.18,0.25-0.25,0.43-0.25,0.47l0.04,0.04l0.04-0.04l0.21-0.11c0,0.29-0.79,1.76-1.19,2.23c-0.43,0.5-0.68,0.94-1.33,2.2
		c-0.14,0.25-0.54,0.75-0.9,1.15c-0.4,0.4-0.72,0.9-0.76,1.08c-0.04,0.14-0.43,0.65-0.83,1.04c-0.43,0.4-0.79,0.83-0.79,0.94
		c0,0.29-0.22,0.54-0.9,0.97c-0.43,0.29-0.9,0.43-1.33,0.43C141.52,142.01,141.27,141.93,141.05,141.86 M141.05,120.62
		c-0.93-0.18-1.19-0.25-1.69-0.86c-0.36-0.32-0.72-0.57-0.79-0.57l-0.11-0.11l0.04-0.22c0-0.25-0.18-0.54-0.54-0.97
		c-0.18-0.22-0.29-0.29-0.29-0.47l0.14-0.5c0.07-0.25,0.07-0.58,0.07-0.76l0.25-0.68c0.18-0.29,0.25-0.61,0.25-0.68
		c0-0.11,0.11-0.54,0.25-0.97c0.18-0.5,0.29-0.68,0.5-0.68l1.4,0.43c0.36,0.07,0.5,0.18,0.5,0.25c0,0.18,0.11,0.18,0.36,0.18
		l0.32-0.07l0.11,0.07c0,0.07,0.25,0.25,0.5,0.36c0.61,0.33,0.79,0.5,1.48,1.55l0.43,0.68l-0.5,1.73c0,0.32-0.11,0.68-0.18,0.68
		c-0.11,0-0.11,0.18-0.11,0.32c0,0.11-0.07,0.36-0.14,0.43l-0.29,0.61c-0.07,0.25-0.14,0.36-0.43,0.36c-0.25,0-0.4-0.11-0.5-0.18
		c-0.04-0.07-0.11-0.14-0.14-0.14c-0.07,0-0.11,0.07-0.11,0.22c0,0.11-0.11,0.18-0.21,0.18L141.05,120.62z M143.21,136.71
		c0.58-0.58,1.04-1.15,1.04-1.19c0-0.07,0.29-0.43,0.65-0.76c0.32-0.32,0.76-0.94,0.93-1.29c0.18-0.36,0.4-0.65,0.43-0.65
		c0.04,0,0.29-0.36,0.5-0.76c0.25-0.4,0.5-0.72,0.54-0.76c0.07-0.04,0.11-0.11,0.11-0.21c0-0.07,0.14-0.33,0.32-0.58
		c0.36-0.4,0.36-0.47,0.36-1.62c-0.04-1.04-0.07-1.26-0.29-1.51c-0.14-0.15-0.4-0.5-0.54-0.83c-0.25-0.47-0.79-0.86-1.08-0.86
		c-0.07,0-0.15,0-0.18,0.07c-0.07,0.11-0.11,0.29-0.11,0.47c0,0.47-0.36,1.15-0.83,1.66c-0.22,0.25-0.68,1.04-1.01,1.73
		c-0.32,0.68-0.65,1.4-0.76,1.58c-0.11,0.22-0.18,0.61-0.18,0.9c0,0.29-0.04,0.58-0.11,0.65c-0.14,0.11-0.94,2.01-1.22,2.88
		c-0.14,0.4-0.22,1.15-0.22,1.73c0,0.36,0.04,0.61,0.11,0.65h0.07C141.95,138.01,142.2,137.76,143.21,136.71 M149.15,120.62
		c-0.94-0.18-1.19-0.25-1.69-0.86c-0.36-0.32-0.72-0.57-0.79-0.57l-0.11-0.11l0.04-0.22c0-0.25-0.18-0.54-0.54-0.97
		c-0.18-0.22-0.29-0.29-0.29-0.47l0.14-0.5c0.07-0.25,0.07-0.58,0.07-0.76l0.25-0.68c0.18-0.29,0.25-0.61,0.25-0.68
		c0-0.11,0.11-0.54,0.25-0.97c0.18-0.5,0.29-0.68,0.5-0.68l1.4,0.43c0.36,0.07,0.5,0.18,0.5,0.25c0,0.18,0.11,0.18,0.36,0.18
		l0.32-0.07l0.11,0.07c0,0.07,0.25,0.25,0.5,0.36c0.61,0.33,0.79,0.5,1.48,1.55l0.43,0.68l-0.5,1.73c0,0.32-0.11,0.68-0.18,0.68
		c-0.11,0-0.11,0.18-0.11,0.32c0,0.11-0.07,0.36-0.14,0.43l-0.29,0.61c-0.07,0.25-0.14,0.36-0.43,0.36c-0.25,0-0.4-0.11-0.5-0.18
		c-0.04-0.07-0.11-0.14-0.15-0.14c-0.07,0-0.11,0.07-0.11,0.22c0,0.11-0.11,0.18-0.22,0.18L149.15,120.62z"/>
	<path class="st1" d="M152.75,142.4c-0.07-0.04-0.5-0.11-0.94-0.15c-1.22-0.07-2.19-0.72-2.81-1.91c-0.22-0.4-0.29-0.58-0.29-1.01
		l0.04-0.61c0.04-0.58,0.18-1.3,0.32-1.62c0.11-0.29,0.32-0.94,0.43-1.4c0.14-0.43,0.29-0.94,0.36-1.08
		c0.07-0.14,0.29-0.72,0.43-1.22l0.9-2.45c0.32-0.76,0.68-1.69,0.79-1.98l0.68-1.91c0.29-0.72,0.54-1.4,0.54-1.51
		c0-0.14,0.07-0.22,0.14-0.25c0.07,0,0.15-0.14,0.15-0.32c0-0.14,0.07-0.32,0.14-0.39c0.11-0.07,0.25-0.32,0.36-0.54
		c0.29-0.65,0.65-1.04,0.93-1.04c0.11,0,0.22,0.07,0.29,0.21c0.07,0.14,0.22,0.22,0.33,0.22h0.04c0.11,0,0.32,0.11,0.47,0.25
		c0.14,0.14,0.29,0.22,0.43,0.22l0.54-0.07l0.14,0.04c0.04,0.04,0.18,0.07,0.32,0.07h0.04c0.32,0,1.26,0.83,1.48,1.33l0.07,0.36
		c0,0.36-0.14,0.79-0.4,1.19c-0.11,0.14-0.25,0.61-0.36,1.04c-0.11,0.43-0.29,0.9-0.4,1.11c-0.18,0.32-1.37,3.46-1.37,3.64
		c0,0.07-0.11,0.36-0.29,0.68c-0.36,0.79-1.91,5.4-1.91,5.87v0.07c0,0.04,0,0.04,0.04,0.04l0.22-0.11c0.15-0.11,0.29-0.32,0.32-0.43
		c0.11-0.29,2.27-3.49,2.66-3.92c0.14-0.14,0.25-0.36,0.25-0.47c0.04-0.11,0.11-0.22,0.22-0.25c0.11-0.07,0.18-0.14,0.22-0.22
		c0-0.11,0.79-1.3,0.94-1.4c0.07-0.04,0.25-0.36,0.43-0.68c0.18-0.32,0.61-0.94,0.97-1.33c0.36-0.43,0.65-0.83,0.65-0.9
		c0-0.07,0.65-0.83,1.48-1.69c1.37-1.44,1.51-1.55,1.94-1.62c0.29,0,0.58,0.04,0.65,0.11c0.11,0.11,0.51,0.18,0.97,0.18l0.83-0.04
		c0.15,0,0.25,0.04,0.29,0.11c0.04,0.07,0.11,0.14,0.21,0.14h0.11c0.25,0,0.61,0.32,0.93,0.9c0.15,0.25,0.25,0.54,0.25,0.9
		c0,0.76-0.36,1.91-1.22,4.03c-0.33,0.76-0.61,1.55-0.65,1.76l-0.22,0.54c-0.22,0.25-0.61,1.33-0.61,1.51v0.04
		c0.07,0,0.47-0.29,0.9-0.68c0.43-0.4,2.52-2.05,2.7-2.2c0.47-0.32,1.15-0.94,1.33-1.01c0.18-0.07,0.47-0.25,0.65-0.36l0.11-0.04
		c0.21,0,0.43,0.22,0.43,0.36v0.04c-0.04,0.07-0.11,0.18-0.18,0.18c-0.07,0-1.19,1.3-1.66,1.8c-0.5,0.54-2.74,2.41-2.99,2.7
		c-0.29,0.29-0.65,0.72-0.86,0.97c-0.54,0.65-1.51,1.66-1.66,1.69c-0.07,0-0.21,0.14-0.32,0.32c-0.11,0.22-0.22,0.36-0.29,0.36
		c-0.04,0-0.14,0.18-0.25,0.36c-0.29,0.65-1.01,1.04-1.69,1.04c-0.18,0-0.36,0-0.5-0.07l-0.83-0.29c-0.5-0.18-1.12-0.94-1.37-1.8
		c-0.11-0.32-0.14-0.79-0.14-1.26c0-0.94,0.18-1.98,0.54-2.81c0.22-0.47,0.47-0.94,0.57-1.04c0.11-0.14,0.18-0.29,0.18-0.36
		s0.18-0.43,0.36-0.79c0.18-0.36,0.36-0.79,0.43-0.97c0.07-0.22,0.14-0.36,0.22-0.4c0.07,0,0.11-0.11,0.11-0.25
		c0.04-0.14,0.25-0.61,0.5-1.08c0.32-0.61,0.61-1.51,0.61-1.87c0-0.07,0-0.14-0.07-0.14c-0.14,0-0.86,0.9-0.86,1.04v0.07
		c0,0.07-0.07,0.11-0.18,0.18c-0.36,0.18-1.58,1.8-2.88,3.89c-0.65,1.08-1.37,2.16-1.55,2.38c-0.21,0.25-0.54,0.72-0.72,1.04
		c-0.18,0.32-0.43,0.69-0.54,0.79c-0.11,0.11-0.18,0.22-0.18,0.29c0,0.07-0.29,0.47-0.61,0.94c-0.33,0.43-0.69,0.97-0.79,1.15
		c-0.47,0.79-1.55,1.84-1.94,1.84L152.75,142.4z"/>
</g>
</svg>
