<?xml version="1.0" encoding="utf-8"?>
<!-- Generator: Adobe Illustrator 25.1.0, SVG Export Plug-In . SVG Version: 6.00 Build 0)  -->
<svg version="1.1" id="Ebene_1" xmlns="http://www.w3.org/2000/svg" xmlns:xlink="http://www.w3.org/1999/xlink" x="0px" y="0px"
	 viewBox="0 0 174 205" style="enable-background:new 0 0 174 205;" xml:space="preserve">
<style type="text/css">
	.st0{clip-path:url(#SVGID_2_);fill:#FBF8F4;}
	.st1{clip-path:url(#SVGID_4_);fill:#FBF8F4;}
	.st2{clip-path:url(#SVGID_6_);fill:#FBF8F4;}
	.st3{clip-path:url(#SVGID_8_);fill:#FBF8F4;}
	.st4{clip-path:url(#SVGID_10_);fill:#FBF8F4;}
	.st5{clip-path:url(#SVGID_12_);fill:#FBF8F4;}
	.st6{clip-path:url(#SVGID_14_);fill:#FBF8F4;}
	.st7{clip-path:url(#SVGID_16_);fill:#FBF8F4;}
	.st8{clip-path:url(#SVGID_18_);fill:#FBF8F4;}
	.st9{clip-path:url(#SVGID_20_);fill:#FBF8F4;}
	.st10{clip-path:url(#SVGID_22_);fill:#FBF8F4;}
	.st11{clip-path:url(#SVGID_24_);fill:#FBF8F4;}
	.st12{clip-path:url(#SVGID_26_);fill:#FBF8F4;}
	.st13{clip-path:url(#SVGID_28_);fill:#FBF8F4;}
	.st14{clip-path:url(#SVGID_30_);fill:#FBF8F4;}
	.st15{clip-path:url(#SVGID_32_);fill:#FBF8F4;}
	.st16{clip-path:url(#SVGID_34_);fill:#FBF8F4;}
</style>
<g>
	<g>
		<defs>
			<rect id="SVGID_1_" width="174" height="205"/>
		</defs>
		<clipPath id="SVGID_2_">
			<use xlink:href="#SVGID_1_"  style="overflow:visible;"/>
		</clipPath>
		<path class="st0" d="M53.5,73.3c0.2-0.4,2.1-4.6,4.6-8.1c1.2-1.8,2.7-3.4,3.8-4.4s2-1.5,2-1.5c1.1-0.7,2.3-1.3,3.5-1.4
			c0.3,0,0.6-0.1,0.9-0.1c0.3,0,0.6,0,0.9,0.1l0.5,0.1l0.5,0.1l0.9,0.3c2.5,0.9,4.8,2.6,6.7,4.6c2.6,2.2,4.8,5,6.7,7.9
			c-1.4-2.6-3-5-5-7.2c-1.9-2.2-4.1-4.2-6.7-5.6c-2.1-1-4.5-1.5-6.7-0.8c-2.2,0.7-4.1,2.2-5.7,3.9c-1.6,1.8-2.9,3.7-4,5.8
			C55.4,68.9,54.4,71.1,53.5,73.3"/>
	</g>
	<g>
		<defs>
			<rect id="SVGID_3_" width="174" height="205"/>
		</defs>
		<clipPath id="SVGID_4_">
			<use xlink:href="#SVGID_3_"  style="overflow:visible;"/>
		</clipPath>
		<path class="st1" d="M79.5,62.2c5.3,5.9,8.9,13.3,10.1,21.1c-0.6-2.4-1.5-4.7-2.5-6.9C85.6,71.3,83,66.4,79.5,62.2"/>
	</g>
	<g>
		<defs>
			<rect id="SVGID_5_" width="174" height="205"/>
		</defs>
		<clipPath id="SVGID_6_">
			<use xlink:href="#SVGID_5_"  style="overflow:visible;"/>
		</clipPath>
		<path class="st2" d="M72.3,178.4l-0.4,1.2l-0.4,1.1l-0.9,2.3c-0.6,1.5-1.3,3-2,4.5c-0.7,1.4-1.5,2.8-2.4,4.1
			c-0.9,1.3-1.9,2.4-3,3.1c-1.1,0.8-2.1,1.1-3.2,0.9c-0.6-0.1-1.8-0.9-2.6-1.9c-1.8-2.1-3-5-3.6-7.9c-0.7-3-0.8-6.1-0.5-9.1
			c0-0.8,0.2-1.5,0.3-2.3c0.1-0.8,0.2-1.5,0.4-2.3c0.3-1.6,0.7-3.2,1-4.8c1-4.8,2.3-9.6,3.4-14.5c0.9-4.2,1.6-8.7,1.7-13.3
			c0.1-4.7,0-9.7-1.2-14.6c-0.6-2.4-1.3-4.8-2.2-7.1c0-0.1-0.1-0.2-0.1-0.3c-0.5,2.1-1.3,4-1.9,5.8c0.5,1.5,0.8,3,1.1,4.5
			c0.6,3.3,0.8,6.6,0.8,10c0.1,3.3-0.2,6.7-0.7,10c-1,6.6-2.7,13.1-4,19.6c-0.6,3.3-1.2,6.5-1.3,9.8c-0.1,3.3,0.2,6.6,1.1,9.7
			c0.2,0.8,0.5,1.6,0.8,2.3c0.3,0.7,0.6,1.5,1,2.2c0.7,1.4,1.7,2.8,2.8,3.9c0.5,0.6,1.2,1.1,1.8,1.4c0.3,0.2,0.7,0.3,1,0.5
			c0.3,0.1,0.7,0.2,1,0.1c1.5,0,2.9-0.6,4.1-1.6c2.4-2,4-5,5.3-7.9c0.7-1.5,1.3-3,1.8-4.6c0.6-1.6,1.1-3.1,1.5-4.7
			c1.6-6.4,2.7-13,3.8-19.5C75.5,165.5,74.2,172.1,72.3,178.4"/>
	</g>
	<g>
		<defs>
			<rect id="SVGID_7_" width="174" height="205"/>
		</defs>
		<clipPath id="SVGID_8_">
			<use xlink:href="#SVGID_7_"  style="overflow:visible;"/>
		</clipPath>
		<path class="st3" d="M55.8,134.2c0,0.4,0,1.6-0.1,3.4c-0.1,1.8-0.2,4.1-0.7,6.8c-0.8,5.4-2.9,12.2-4.8,19
			c-0.5,1.7-0.9,3.4-1.3,5.2c-0.4,1.7-0.8,3.4-1,5.1c-0.6,3.4-0.7,6.8-0.4,9.6c0.3,2.9,0.8,5.2,1.4,6.9c0.3,0.8,0.5,1.4,0.7,1.9
			c0.2,0.4,0.3,0.7,0.3,0.7c1.2,2.4,2.8,4.8,5.2,6.8c0.7,0.5,1.4,1,2.3,1.3c0.4,0.2,1,0.4,1.5,0.5c0.6,0.1,1,0.1,1.5,0.1
			c0.9,0.1,1.8-0.1,2.7-0.3c0.5-0.1,0.8-0.3,1.3-0.5c0.4-0.2,0.8-0.4,1.2-0.6c2.9-1.7,4.6-4.1,6-6.3c1.4-2.2,2.4-4.5,3.4-6.8
			c0.5-1.1,0.9-2.3,1.3-3.4c0.4-1,0.9-2.4,1.2-3.6c0.7-2.4,1.2-4.7,1.7-7c1-4.6,1.8-9.2,2.7-13.8c0.3-2.8,0.7-5.7,1.1-8.3
			c0.5-2.6,1.2-5.4,1.9-8.1c1.5-5.4,3.1-10.9,4.9-16.3c-1.8,4.4-3.6,8.7-5.2,13.2c-1.6,4.4-3.2,8.9-4.2,13.4
			c-1,4.6-1.9,9.3-2.9,13.9c-0.5,2.3-1,4.6-1.6,7c-0.6,2.3-1.1,4.6-1.9,6.9c-1.3,3.6-2.6,7.2-4.6,10.6c-1,1.7-2.1,3.3-3.6,4.7
			c-1.4,1.4-3.5,2.4-5.6,2.3c-0.5,0-1.1-0.1-1.6-0.3l-0.7-0.3c-0.2-0.1-0.4-0.3-0.7-0.4c-0.9-0.6-1.6-1.3-2.3-2
			c-1.3-1.5-2.3-3.2-3.1-5c-1.6-3.6-2.2-7.5-2.3-11.4c-0.1-3.9,0.5-7.7,1.3-11.4c0.8-3.7,1.6-7.4,2.5-11.1s1.6-7.4,2.1-11.1
			C55.9,141.8,55.9,138,55.8,134.2"/>
	</g>
	<g>
		<defs>
			<rect id="SVGID_9_" width="174" height="205"/>
		</defs>
		<clipPath id="SVGID_10_">
			<use xlink:href="#SVGID_9_"  style="overflow:visible;"/>
		</clipPath>
		<path class="st4" d="M94,96.4c-0.8-4.5-2.3-9-3.8-13.3c1.2,4.6,1.9,8.3,2.2,13.1L94,96.4z"/>
	</g>
	<g>
		<defs>
			<rect id="SVGID_11_" width="174" height="205"/>
		</defs>
		<clipPath id="SVGID_12_">
			<use xlink:href="#SVGID_11_"  style="overflow:visible;"/>
		</clipPath>
		<path class="st5" d="M90.6,114.9c-0.4,2-0.7,3.5-1.2,5.4c-0.5,2-1.2,4-2,5.9c-0.8,1.9-1.6,3.9-2.4,5.9c-1.6,3.9-3,7.9-4.4,11.9
			c-0.7,2-1.3,4-1.9,6.1c-0.6,2.1-1,4.1-1.4,6.2c0.5-2.1,1.1-4.1,1.7-6.1c0.7-2,1.4-4,2.2-6c1.5-3.9,3.2-7.8,4.9-11.7
			c0.9-1.9,1.7-3.8,2.7-5.7c0.9-1.9,1.7-4,2.4-6.1c0.6-1.8,1-4,1.4-5.8L90.6,114.9z"/>
	</g>
	<g>
		<defs>
			<rect id="SVGID_13_" width="174" height="205"/>
		</defs>
		<clipPath id="SVGID_14_">
			<use xlink:href="#SVGID_13_"  style="overflow:visible;"/>
		</clipPath>
		<path class="st6" d="M48.8,85c1-4,2.2-6,3.7-9.9c1.5-3.9,3.2-7.7,5.5-11.2c1.2-1.8,2.5-3.4,4.1-4.8c1.6-1.4,3.5-2.4,5.7-2.7
			c2.2-0.2,4.3,0.5,6.1,1.5c1.9,1,3.6,2.3,5.1,3.8c-1.5-1.5-3.1-2.9-5-4c-0.4-0.3-0.9-0.5-1.4-0.7c-0.2-0.1-0.5-0.2-0.8-0.3
			l-0.8-0.2c-1-0.4-2.2-0.5-3.3-0.4c-2.3,0.2-4.4,1.3-6.1,2.7c-1.7,1.4-3.1,3.1-4.4,4.8c-0.9,1.3-1.7,2.7-2.5,4.1
			c-0.6,1.2-1.2,2.4-1.8,3.7c-1.2,2.7-2.2,5.4-3.2,8.2c-0.7,2.6-1.3,3.3-1.8,5.9L48.8,85z"/>
	</g>
	<g>
		<defs>
			<rect id="SVGID_15_" width="174" height="205"/>
		</defs>
		<clipPath id="SVGID_16_">
			<use xlink:href="#SVGID_15_"  style="overflow:visible;"/>
		</clipPath>
		<path class="st7" d="M54.3,125.1c-0.6-3.1-1.6-6-2.8-8.9c-0.6-1.5-1.4-3-2-4.6c-0.7-1.5-1.3-3.1-1.8-4.7c-1.1-3.2-1.8-6.5-1.9-9.8
			c-0.2-3.3,0.2-6.7,0.9-10c1-0.4,2-0.7,3-1.1c-0.8,4-1.1,8.1-0.5,11.9c0.5,3.9,1.8,7.6,3.6,11.2c0.2,0.5,0.4,1,0.6,1.5l0.7,1.6
			c0.5,1.1,1,2.2,1.4,3.3c0.2,0.6,0.5,1.3,0.7,1.9c2.3-10,5.5-23.8,7.6-29.4c0.8-2.3,6.8-15.2,7.2-31.4c-0.3-0.2-0.6-0.3-1-0.4
			l-0.9-0.3l-0.5-0.1l-0.5-0.1c-0.3-0.1-0.6-0.1-0.9-0.1c-0.3,0-0.6,0-0.9,0.1c-1.2,0.2-2.5,0.7-3.5,1.4c0,0-0.8,0.5-2,1.5
			s-2.6,2.6-3.8,4.4c-2.5,3.5-4.4,7.7-4.6,8.1c0.9-2.2,1.9-4.3,3.1-6.4c1.2-2.1,2.5-4,4-5.8c1.6-1.7,3.5-3.2,5.7-3.9
			c2-0.6,4.1-0.3,5.9,0.5c0-0.2,0-0.3,0-0.5c-1.4-0.6-2.9-0.9-4.5-0.7c-2.2,0.2-4.1,1.3-5.7,2.7c-1.6,1.4-2.9,3-4.1,4.8
			c-2.3,3.5-4,7.3-5.5,11.2C49.6,77,49,81,48,85l-1.5,0.4c0.5-2.7,1.1-5.3,1.8-7.9c0.9-2.8,2-5.5,3.2-8.2c0.5-1.2,1.2-2.4,1.8-3.7
			c0.7-1.4,1.5-2.8,2.5-4.1c1.2-1.8,2.7-3.4,4.4-4.8c1.7-1.4,3.8-2.5,6.1-2.7c1.1-0.1,2.3,0,3.3,0.4l0.8,0.2
			c0.2,0.1,0.3,0.2,0.5,0.2c0-4.2-0.4-8.5-1.3-13C64.7,19.2,51.5,4.6,37.4,2.8C15.6,0.1,11.9,18,10.3,25S6.8,47.6,7.8,56.3
			c0.8,7.1,5.7,31.5,3.7,43.4c-2.1,12-7.6,33.4-8.7,46.5s9.1,23.1,21.2,24c12,1,19.6-10.6,22.2-15.5c2.6-4.9,6.1-20.8,7.7-27.8
			C54,126.4,54.1,125.8,54.3,125.1"/>
	</g>
</g>
<g>
	<g>
		<defs>
			<rect id="SVGID_17_" width="174" height="205"/>
		</defs>
		<clipPath id="SVGID_18_">
			<use xlink:href="#SVGID_17_"  style="overflow:visible;"/>
		</clipPath>
		<path class="st8" d="M64.8,116.7c-0.1,0-0.2-0.1-0.4-0.1h-0.3c-0.2,0-0.3-0.1-0.4-0.1c-0.1-0.1-0.2-0.2-0.2-0.2h0
			c-0.3,0-0.9-0.8-1-1.3c0-0.4-0.1-0.7-0.1-1.1c0-0.7,0.1-1.5,0.2-2c0.6-2,1-3,1.4-4.3c0.3-0.8,0.6-1.8,0.8-2.2
			c0.3-0.9,0.7-1.7,0.8-1.9c0.1,0,0.1-0.2,0.1-0.3c0-0.1,0.3-0.9,0.7-1.8c0.4-0.9,0.7-1.7,0.7-1.7c0-0.1,0.1-0.4,0.2-0.6
			c0.1-0.2,0.4-1,0.7-1.8c0.5-1.6,2-5.9,2.4-6.8c0.2-0.3,0.3-0.9,0.4-1.3l0.5-1.7c0.2-0.5,0.4-1.2,0.4-1.4c0-0.4,0.1-0.5,0.5-0.7
			c0.2-0.1,0.3-0.2,0.5-0.2l0.2,0.1c0.1,0.1,0.5,0.1,0.8,0.2c0.3,0,0.9,0.1,1.2,0.2c0.3,0.1,0.7,0.1,1,0.1l1.7-0.1l0.5,0
			c0.1,0,0.4,0.1,0.7,0.1l2.5,0.1c0.4,0,0.8,0,0.9-0.1l0.5,0c0.1,0,0.2,0,0.2,0c0,0.1,0.2,0.1,0.4,0.1h0.1c0.3,0,1,0.5,1,0.8v0
			c-0.1,0.4-0.8,1-1.3,1c-0.1,0-0.2,0-0.2-0.1c-0.1-0.2-0.4-0.3-0.7-0.3l-0.4,0c-0.1,0-0.2,0-0.4,0l-0.8,0c-0.2,0-0.4,0-0.6,0
			c-0.2,0-0.4,0-0.5,0.1c-0.1,0-0.2,0.1-0.4,0.1l-0.4,0c-0.7,0-2.7,0.2-2.8,0.3c0,0,0,0.1,0,0.1l0,0.3c0,0.9-1.5,6.2-2.1,8.1
			l-0.6,1.7c0,0,0.1,0,0.3,0c0.2,0,0.7,0,1.2-0.1l1.3-0.1c0.4,0,0.6,0,0.8,0.1l0.9,0.2c0.2,0,0.4,0.1,0.5,0.2l0.3,0.3
			c0.1,0,0.1,0.1,0.1,0.1c0,0.1-0.1,0.1-0.2,0.3c-0.2,0.3-0.8,0.5-1.3,0.5c-0.2,0-0.4,0-0.5-0.1c-0.2-0.1-0.7-0.1-1.1-0.1
			c-0.6,0-1.3,0.1-1.9,0.2l-0.9,0.2c-0.5,1.5-0.8,2.2-1,3l-1.7,4.4l-0.8,2.1c-0.2,0.7-0.4,1.3-0.5,1.6c-0.1,0.2-0.3,0.9-0.5,1.6
			c-1,3.3-1,3.4-2.1,3.9c-0.6,0.2-0.8,0.4-0.9,0.4C64.9,116.8,64.8,116.7,64.8,116.7"/>
	</g>
	<g>
		<defs>
			<rect id="SVGID_19_" width="174" height="205"/>
		</defs>
		<clipPath id="SVGID_20_">
			<use xlink:href="#SVGID_19_"  style="overflow:visible;"/>
		</clipPath>
		<path class="st9" d="M80.2,113.9c-0.1,0-0.4-0.1-0.7-0.1c-0.2,0-0.4-0.1-0.6-0.3c-0.1-0.2-0.3-0.3-0.5-0.3c-0.2,0-1.3-1.2-1.5-1.7
			c-0.1-0.2-0.2-0.3-0.2-0.3s-0.1-0.1-0.1-0.2s0-0.2-0.1-0.2c-0.1,0-0.5-1.2-0.7-2.3c-0.1-0.5-0.1-1.2-0.1-1.9c0-0.8,0.1-1.6,0.2-2
			c0.2-0.9,1-2.7,1.4-3.6c0.2-0.3,0.3-0.7,0.3-0.8c0-0.1,0.1-0.2,0.2-0.4c0.2-0.2,0.5-0.6,0.9-1.6c0.1-0.3,0.4-0.6,0.4-0.7
			c0.1-0.1,0.2-0.2,0.2-0.3c0-0.1,0-0.1-0.1-0.1h-0.1c-0.1,0-0.2,0-0.2-0.1s-0.1-0.1-0.1-0.2c0-0.1,0-0.2,0.2-0.4
			c0.1-0.2,0.4-0.5,0.7-0.6c0.2-0.1,0.4-0.3,0.4-0.4c0-0.1,0.2-0.2,0.4-0.3c0.7-0.3,1.4-0.5,2-0.5c0.5,0,1,0.1,1.5,0.3
			c0.4,0.1,0.7,0.3,0.8,0.3c0.2,0,1.7,0.8,2.1,1.2c1,0.9,1.3,1.3,1.5,1.8c0.1,0.3,0.2,0.6,0.2,0.7l0.4,0.9c0.2,0.6,0.3,1,0.3,2
			c0,1.2,0,1.3-0.4,1.9c-0.2,0.2-0.2,0.4-0.2,0.5l0,0l0,0L89,104c0,0.3-0.8,1.8-1.2,2.2c-0.4,0.5-0.7,0.9-1.3,2.2
			c-0.1,0.2-0.5,0.8-0.9,1.2c-0.4,0.4-0.7,0.9-0.8,1.1c0,0.1-0.4,0.7-0.8,1c-0.4,0.4-0.8,0.8-0.8,0.9c0,0.3-0.2,0.5-0.9,1
			c-0.4,0.3-0.9,0.4-1.3,0.4C80.7,114,80.4,113.9,80.2,113.9 M82.4,108.7c0.6-0.6,1-1.2,1-1.2c0-0.1,0.3-0.4,0.7-0.8
			c0.3-0.3,0.8-0.9,0.9-1.3s0.4-0.7,0.4-0.7c0,0,0.3-0.4,0.5-0.8c0.2-0.4,0.5-0.7,0.5-0.8c0.1,0,0.1-0.1,0.1-0.2
			c0-0.1,0.1-0.3,0.3-0.6c0.4-0.4,0.4-0.5,0.4-1.6c0-1-0.1-1.3-0.3-1.5c-0.1-0.1-0.4-0.5-0.5-0.8c-0.2-0.5-0.8-0.9-1.1-0.9
			c-0.1,0-0.1,0-0.2,0.1c-0.1,0.1-0.1,0.3-0.1,0.5c0,0.5-0.4,1.2-0.8,1.7c-0.2,0.2-0.7,1-1,1.7c-0.3,0.7-0.7,1.4-0.8,1.6
			c-0.1,0.2-0.2,0.6-0.2,0.9s0,0.6-0.1,0.7c-0.1,0.1-0.9,2-1.2,2.9c-0.1,0.4-0.2,1.2-0.2,1.7c0,0.4,0,0.6,0.1,0.7h0.1
			C81.1,110,81.3,109.8,82.4,108.7"/>
	</g>
	<g>
		<defs>
			<rect id="SVGID_21_" width="174" height="205"/>
		</defs>
		<clipPath id="SVGID_22_">
			<use xlink:href="#SVGID_21_"  style="overflow:visible;"/>
		</clipPath>
		<path class="st10" d="M90.9,114.2c-0.2,0-0.3-0.1-0.4-0.1c-0.1-0.1-0.8-0.6-1-0.7c-0.2-0.1-0.6-0.7-1.2-2.1
			c-0.2-0.5-0.3-0.8-0.3-1l0-0.4c0.1-0.7,0.5-2,1.2-3.5c0.2-0.5,0.5-1.5,0.8-2.1c0.2-0.6,0.5-1.6,0.7-2.1c0.2-0.5,0.5-1.2,0.6-1.4
			c0.2-0.6,0.9-2.3,1.2-2.8l0.3-0.7c0-0.2,0.1-0.3,0.2-0.3l0.2,0c0.9,0.1,1.5,0.4,1.5,0.4s0.2,0.1,0.5,0.1c0.5,0,0.6,0.1,0.9,0.5
			c0.5,0.5,0.9,1.7,0.9,2.1c0,0.2-0.1,0.5-0.2,0.7c-0.1,0.2-0.3,0.7-0.4,1l-0.8,2.1c-0.6,1.4-0.7,1.8-0.9,2.7l-0.1,0.4
			c0,0.1,0.1,0.1,0.2,0.1c0.3,0,0.5-0.1,0.7-0.5l0.4-0.5c0.1-0.1,0.2-0.4,0.4-0.5c0.1-0.1,0.2-0.2,0.2-0.3c0-0.1,2.2-3.1,2.4-3.2
			c0.1-0.1,0.2-0.2,0.2-0.4c0-0.3,1.3-1.7,1.6-1.7c0.1,0,0.4-0.1,0.7-0.2s0.8-0.3,1.2-0.3l0.4,0c0.3,0,0.4,0.1,0.5,0.3
			c0.1,0.2,0.4,0.3,0.8,0.4c0.4,0,0.7,0.1,0.7,0.2c0.1,0.1,0.3,0.5,0.6,0.8c0.4,0.4,0.5,0.5,0.5,1v0.3c0,0.4-0.2,1.1-0.4,1.7
			s-0.3,1-0.3,1.3l0,0.5c0,0.2-0.1,0.3-0.4,0.5c-0.2,0.2-0.5,0.2-0.9,0.2c-0.4,0-0.9-0.1-1.2-0.4c-0.2-0.2-0.5-0.3-0.7-0.3
			c-0.2,0-0.3-0.1-0.4-0.3c0-0.2-0.2-0.5-0.3-0.7c-0.4-0.5-0.8-1.6-0.8-2.3v-0.1c0-0.4-0.1-0.6-0.2-0.6c-0.1,0-0.2,0.1-0.3,0.2
			l-0.7,0.7c-0.2,0.2-0.7,0.8-0.9,1.2c-1.7,2.4-2,2.9-2.2,3l-0.4,0.5c-0.1,0.2-0.3,0.5-0.5,0.8c-0.2,0.2-0.3,0.5-0.3,0.5l-0.6,0.7
			c-0.3,0.4-0.6,0.7-0.7,0.8c-0.2,0.3-0.7,1.1-0.8,1.1c-0.1,0-0.5,0.9-0.7,1.5c0,0.2-0.2,0.6-0.3,0.8c-0.1,0.3-0.3,0.4-0.6,0.4
			L90.9,114.2z"/>
	</g>
	<g>
		<defs>
			<rect id="SVGID_23_" width="174" height="205"/>
		</defs>
		<clipPath id="SVGID_24_">
			<use xlink:href="#SVGID_23_"  style="overflow:visible;"/>
		</clipPath>
		<path class="st11" d="M108.1,114.7c-0.1-0.1-0.4-0.1-0.7-0.2c-0.6-0.1-1.2-0.7-1.4-1.4c-0.2-0.5-0.3-1.5-0.3-2.4
			c0-0.8,0.1-1.7,0.2-2.3l0.3-1.3c0.1-0.5,0.2-1,0.3-1.2c0.1-0.2,0.2-0.4,0.2-0.5v0c0-0.2,0.5-2.2,1-3.7l0.3-1.2
			c0-0.1,0.2-0.8,0.5-1.5c0.2-0.8,0.5-1.4,0.5-1.5c0-0.1,0.1-0.3,0.3-0.6c0.2-0.3,0.4-0.4,0.5-0.4h0c0.1,0,0.3,0,0.4-0.1l0.1,0
			l0.7,0.1l0.4,0c0.1,0,0.3,0,0.4,0.1c0.1,0,0.2,0,0.2,0s0.2,0,0.2,0c0.1-0.1,0.2-0.1,0.2-0.1c0,0,0.1,0,0.1,0.1
			c0,0,0.1,0.1,0.2,0.1h0.1c0.2,0,0.5,0.2,1.1,0.7c0.1,0.1,0.2,0.4,0.3,0.8c0,0.2,0.1,0.3,0.1,0.5c0,0.2,0,0.4-0.1,0.6
			c-0.1,0.2-0.2,0.7-0.2,1c0,0.3-0.1,0.8-0.2,1.2c-0.1,0.2-0.2,0.5-0.2,0.7v0.1c0,0.1,0,0.3-0.1,0.3c-0.1,0.1-0.1,0.2-0.1,0.3v0
			c0,0.1-0.1,0.4-0.2,0.7c-0.2,0.6-0.8,2.7-0.9,3.4l-0.4,1.3c-0.1,0.6-0.2,0.9-0.2,1.2c0,0.1,0,0.2,0.1,0.2h0c0.1,0,0.2-0.2,0.3-0.5
			c0.1-0.2,0.2-0.5,0.3-0.5c0,0,0.5-0.7,1-1.6c0.5-0.9,1-1.6,1.1-1.6c0,0,0.1-0.1,0.1-0.2c0-0.1,0.1-0.3,0.2-0.5
			c0.1-0.2,0.5-0.8,0.7-1.3s0.7-1.2,0.8-1.4c0.2-0.2,0.3-0.5,0.3-0.5c0,0,0.1-0.2,0.2-0.4c0.1-0.2,0.3-0.3,0.6-0.3
			c0.3,0,0.5-0.1,0.8-0.4c0.6-0.6,2.1-1.3,3.2-1.4l0.9-0.1l0.3,0l0.2,0c0.2-0.1,0.5-0.1,0.7-0.1c0.4,0,0.7,0.1,0.9,0.4
			c0.4,0.3,0.6,0.6,0.6,1.1c0,0.3-0.1,0.7-0.2,1.2l-0.3,1.3v0c0,0.2-0.1,0.6-0.3,1c-0.2,0.5-0.4,1-0.4,1.2c0,0.2-0.2,0.6-0.4,1
			c-0.1,0.3-0.3,0.7-0.3,0.8v0c0,0.1-0.1,0.5-0.2,0.8c-0.1,0.4-0.2,0.7-0.2,0.8s-0.2,0.5-0.4,0.9c-0.2,0.4-0.3,0.8-0.3,1v0.1
			c0,0,0,0,0.1,0c0.1,0,0.3-0.2,0.9-0.9c2.2-2.8,3.8-5,3.8-5.2v0c0-0.1,0.2-0.5,0.5-0.9c0.3-0.4,0.5-0.8,0.6-0.9s0.3-0.2,0.5-0.2
			c0.2-0.1,0.5-0.2,0.7-0.5c0.2-0.2,0.4-0.5,0.4-0.5c0.1,0,0.4-0.4,0.7-0.8c0.6-0.9,0.8-0.9,2.9-1.3c0.2,0,0.5,0,0.8,0
			c0.6,0,1.2,0.1,1.4,0.2c0.1,0.1,0.2,0.4,0.3,0.7c0.1,0.2,0.1,0.4,0.1,0.6s0,0.5-0.1,1c-0.1,0.5-0.3,1.3-0.5,1.6
			c-0.1,0.3-0.2,0.8-0.2,1c0,0.2-0.2,1-0.5,1.8c-0.2,0.7-0.5,1.7-0.6,2l-0.5,1.7c-0.2,0.6-0.3,0.9-0.3,1.1c0,0.1,0,0.2,0.1,0.2h0
			c0.1,0,0.2-0.1,0.2-0.1v0c0-0.1,0.1-0.1,0.2-0.2c0.1,0,0.5-0.5,0.9-1c1.2-1.5,2.4-2.9,2.6-2.9c0.1,0,0.5-0.5,1-1.2l0.9-1.2
			c0,0.4,0,0.3,0,0.7c0,0.2-0.1,0.5-0.2,0.7c-0.4,0.7-1.3,1.8-1.4,1.8c-0.1,0-1,1.1-2.7,3.3c-0.2,0.2-0.4,0.5-0.5,0.5
			c-0.1,0-0.2,0.1-0.2,0.1c0,0.1-0.2,0.3-0.5,0.6s-0.4,0.5-0.4,0.6v0c0,0.1-0.2,0.3-0.4,0.5s-0.4,0.4-0.5,0.5
			c-0.1,0.2-1.3,0.5-1.9,0.5l-0.2,0c-0.2-0.1-0.5-0.2-0.7-0.3c-0.4-0.3-1.3-1.2-1.4-1.6c0-0.1-0.1-0.2-0.2-0.2h0
			c-0.1,0-0.2-0.5-0.2-1.1c0-0.6,0.1-1.3,0.2-1.6c0.1-0.1,0.1-0.3,0.2-0.6c0-0.5,0.2-1,0.8-2.6c0.4-1.2,0.6-2,0.6-2.4
			c0-0.1,0-0.2-0.1-0.2s-0.3,0.2-0.5,0.7c-0.4,0.7-2.1,3.1-2.6,3.7c-0.9,1.1-1.7,2.2-2.3,3.2c-0.7,1.3-1.4,2.2-1.7,2.3h0
			c-0.1,0-0.3-0.1-0.4-0.2l-0.2-0.3c-0.3,0.4-0.5,0.5-0.5,0.8l0.1,0.2c0,0,0,0-0.1,0l-1.3,0l-0.5,0c-0.2,0-0.4,0-0.4-0.1
			c0-0.1-0.2-0.1-0.4-0.1h-0.1c-0.3,0-0.6-0.1-1.1-0.6c-0.4-0.4-0.5-0.5-0.5-1.3l0-0.5c0-0.5,0.1-1.1,0.5-2.7
			c0.2-0.7,1.3-3.8,1.6-4.6c0.1-0.1,0.1-0.3,0.1-0.4v0c0-0.1,0.1-0.3,0.2-0.4c0.2-0.2,0.3-0.6,0.3-0.7c0-0.1,0-0.1-0.1-0.1
			c-0.2,0.1-0.9,1.2-1.1,1.7c-0.1,0.2-0.3,0.5-0.5,0.6c-0.1,0.1-0.4,0.5-0.7,0.9c-0.4,0.7-1.4,2.3-2.4,3.8c-0.3,0.5-0.7,1-0.7,1.2
			l-0.2,0.4c-0.1,0.1-0.3,0.5-0.5,0.9c-0.4,0.7-0.6,1.1-0.7,1.1c0,0,0,0,0-0.1v0c0-0.2,0.3-0.8,0.6-1.2c0.1-0.2,0.2-0.4,0.2-0.5
			s0-0.1-0.1-0.1c-0.1,0-0.2,0.2-0.5,0.6c-0.2,0.3-0.6,0.9-0.9,1.3c-0.3,0.4-0.7,1-0.7,1.2l-0.1,0.4c-1.3,0.2-1.6,0.3-2.2,0.3
			C108.2,114.7,108.1,114.7,108.1,114.7"/>
	</g>
	<g>
		<defs>
			<rect id="SVGID_25_" width="174" height="205"/>
		</defs>
		<clipPath id="SVGID_26_">
			<use xlink:href="#SVGID_25_"  style="overflow:visible;"/>
		</clipPath>
		<path class="st12" d="M95.3,142.2c-0.2,0-0.8-0.1-1.4-0.1c-1,0-1.1,0-1.4-0.2c-0.2-0.1-0.6-0.4-1-0.6c-0.3-0.2-0.5-0.5-0.6-0.5
			c-1-0.8-1.3-2.1-1.4-2.8l0-0.4c0-2.6,2.9-5.4,2.9-5.4h0.2c0.2,0,0.2,0,0.2,0.1v0.1c0,0.1,0,0.1,0.1,0.1c0,0-2.5,2.8-2.6,5v0.3
			c0,0.4,0,0.8,0.1,0.9s0.2,0.4,0.3,0.6c0.1,0.2,0.4,0.5,0.6,0.7c0.3,0.2,0.4,0.2,0.8,0.2h0.6c0.9,0,1.1-0.1,1.8-0.4
			c1.2-0.6,1.8-1.3,2.9-3.2c0.4-0.6,0.4-0.9,0.5-1.9l0-0.8c0-0.6-0.1-1.1-0.3-2.2c-0.2-1-0.2-1.7-0.2-2.1v-0.2
			c0.2-1.1,0.8-3.3,1-3.6c0.1-0.1,0.2-0.3,0.2-0.3c0-0.2,0.9-0.9,1.3-1c1.3-0.2,1.5-0.2,2.2-0.2c0.4,0,0.7,0.1,1.4,0.3
			c0.8,0.3,1.3,1,1.3,1.7c0,0.3,0.1,0.7,0.2,0.8c0.1,0.2,0.1,0.3,0.1,0.4c0,0.4-0.1,0.6-0.2,0.9c-0.1,0.2-0.2,0.2-0.5,0.2h-0.4
			l0-1.1c0-0.8-0.2-1.4-0.4-1.7c-0.1-0.1-0.2-0.2-0.2-0.4s-0.1-0.1-0.1-0.1c-0.2,0-0.4,0.1-0.6,0.2c-0.4,0.4-0.6,0.7-0.6,1l0.1,0.7
			c-0.1,0.7-0.2,1.3-0.2,3.5c0,0.7,0,1.3,0.1,1.6c0.4,1.9,0.6,2.8,0.6,4.1c0,0.3,0,0.6-0.1,0.8l-0.3,1.1c-0.2,0.6-0.5,1.2-1.3,1.9
			c-0.6,0.6-1,0.9-2,1.4c-0.6,0.3-0.9,0.4-1.4,0.4l-1.6,0.1C95.6,142.3,95.4,142.3,95.3,142.2"/>
	</g>
	<g>
		<defs>
			<rect id="SVGID_27_" width="174" height="205"/>
		</defs>
		<clipPath id="SVGID_28_">
			<use xlink:href="#SVGID_27_"  style="overflow:visible;"/>
		</clipPath>
		<path class="st13" d="M109.3,143.3c-0.3,0-0.5-0.1-1-0.3c-0.4-0.2-0.8-0.5-0.9-0.6c-0.1-0.1-0.2-0.2-0.3-0.2
			c-0.2,0-0.8-0.8-1.6-2.4c-0.5-1-0.7-1.5-0.8-2.2c0-0.3-0.1-0.7-0.1-1.1c0-1.4,0.3-2.9,0.7-3.9c1.1-2.4,1.3-2.9,1.5-3.1
			c0.1-0.1,0.2-0.3,0.2-0.4c0,0,0.1-0.2,0.2-0.2c0.1-0.1,0.3-0.4,0.4-0.6c0.1-0.2,0.7-0.9,1.3-1.6c0.9-0.9,1.1-1.1,1.3-1.1l0.4,0.1
			c0.1,0,0.1,0,0.1-0.1l-0.1-0.2c0-0.2,0.2-0.3,0.8-0.3l0.6,0c1.2,0.1,2.7,0.4,2.8,0.6c0.1,0.1,0.2,0.1,0.4,0.1
			c0.1,0,0.4,0.2,0.6,0.4c0.3,0.3,0.4,0.6,0.5,1.2c0.1,0.4,0.1,1,0.1,1.5c0,0.5,0,0.9-0.1,1c-0.1,0-0.3,0.3-0.5,0.5
			c-0.2,0.2-0.4,0.4-0.4,0.4h0c0,0-0.1-0.5-0.1-1c0-0.9-0.3-2-0.6-2c-0.1,0-0.3,0.2-0.4,0.4c-0.2,0.2-0.4,0.5-0.6,0.7
			c-0.1,0.1-0.2,0.3-0.2,0.4c0,0.1-0.2,0.4-0.4,0.7c-0.2,0.3-0.5,0.8-0.6,1c-0.2,0.7-0.8,1.9-1.1,2.1c-0.2,0.1-0.7,1.1-0.7,1.4
			c0,0.1,0,0.1-0.1,0.1c0,0-0.3,0.5-0.6,1.1c-0.5,0.9-0.5,1.3-0.7,2.3c-0.1,0.8-0.1,1.4-0.1,1.8c0,0.5,0.1,0.8,0.2,0.8
			c0.3,0,0.7-0.2,1.4-0.9c1.1-1,1.6-1.3,2-1.6c0.2-0.1,0.5-0.3,0.6-0.4c0.1-0.1,0.5-0.5,1-0.8c0.7-0.5,4.6-3.5,5-3.9
			c0.2-0.1,0.4-0.2,0.5-0.2c0.1,0,0.1,0,0.1-0.1s0.2-0.2,0.4-0.3c0.1-0.1,0.2-0.1,0.2-0.1l0.2,0h0.2c0.3,0,0.4,0.1,0.4,0.3
			c0,0.1-0.1,0.2-0.2,0.3c-0.1,0.1-0.8,0.6-0.8,0.7c0,0.1-0.2,0.3-0.4,0.4c-0.2,0.1-0.4,0.3-0.4,0.4c0,0.2-3.8,3.9-4,4
			c-0.2,0.1-0.9,0.8-1.6,1.6c-0.2,0.3-0.4,0.5-0.7,0.7c0,0.1-0.3,0.2-0.5,0.4c-0.7,0.8-0.9,0.5-1,0.8c-0.2,0.7-1,1.2-2.3,1.3
			L109.3,143.3L109.3,143.3z"/>
	</g>
	<g>
		<defs>
			<rect id="SVGID_29_" width="174" height="205"/>
		</defs>
		<clipPath id="SVGID_30_">
			<use xlink:href="#SVGID_29_"  style="overflow:visible;"/>
		</clipPath>
		<path class="st14" d="M128.2,143.7c-0.3-0.5-0.3-1.2-0.4-4.1c0-1.8,0.8-3.4,2.6-7.5v0c0,0-0.1-0.1-0.1-0.1c-0.2,0-1.4,1.4-1.4,1.4
			c-0.3,0-0.6,0.5-1.4,1.2c-0.6,0.5-0.7,0.6-0.9,1c-0.8,1.1-2.4,2.6-2.8,3.7c-0.4,0.8-0.7,0.7-0.8,1.5l-0.4,1.1
			c-0.1,0.6-0.3,1-2.2,1.2c-0.4,0-0.7-0.1-1.2-0.5c-0.9-0.7-1-0.9-1-2.1l0-0.8c0-1.1,0.4-2,1.1-4.1c0.5-1.9,0.7-2.3,1.2-3.3v0
			c0-0.4,1.9-4.8,1.9-4.9c0-0.1,0.8-1.6,1-2.1c0.2-0.5,0.8-1.7,1-2.2c0.4-1.5,0.7-1.4,0.9-2.1c0.1-0.5,0.4-0.7,0.4-1.4l0-1h0.5
			c0.8,0,1.6,0.9,2,0.9c0.4,0,1.5,1.3,1.5,2.6c0,0.8-0.2,1.8-0.8,3.1c-0.2,0.6-0.6,2.1-0.6,2.3c0,0.2-1.2,3.4-1.4,3.7
			c-0.2,0.2-0.4,1.1-0.9,2.3c-0.3,0.7-0.5,1.1-0.5,1.3c0,0.1,0,0.1,0,0.1c0.1,0,0.6-0.8,0.9-0.8c0.1,0,0.5-0.2,0.8-0.5l2.8-2.7
			c0.6-0.6,0.8-0.5,1-0.9c0.2-0.2,0.5-0.4,0.8-0.4c0.2,0,0.3,0.2,0.6,0.2c0.2,0,0.3,0.1,0.3,0.2c0,0.2,0.5,0.5,0.8,0.5h0.2
			c0.7,0,1.9,1.7,1.9,2.6c0,0.8-0.8,1.8-0.8,2.1c0,0.2-0.5,1.7-0.8,2.1c-0.2,0.4-1.1,2.4-1.4,2.8c-0.1,0.2-0.3,0.4-0.3,0.5v0
			c0,0.1-0.2,0.3-0.4,0.5c-1,0.8-1.3,1.2-1.4,1.5c-0.1,0.4-0.6,0.9-0.8,0.9h-0.1c-0.5,0-0.5,1.1-0.8,1.1
			C128.5,144.6,128.5,144.2,128.2,143.7"/>
	</g>
	<g>
		<defs>
			<rect id="SVGID_31_" width="174" height="205"/>
		</defs>
		<clipPath id="SVGID_32_">
			<use xlink:href="#SVGID_31_"  style="overflow:visible;"/>
		</clipPath>
		<path class="st15" d="M141.1,141.9c-0.1,0-0.4-0.1-0.6-0.1c-0.2,0-0.4-0.1-0.6-0.3c-0.1-0.2-0.3-0.3-0.5-0.3
			c-0.2,0-1.3-1.2-1.5-1.7c-0.1-0.2-0.2-0.3-0.2-0.3s-0.1-0.1-0.1-0.2c0-0.1,0-0.2-0.1-0.2c-0.1,0-0.5-1.2-0.6-2.3
			c-0.1-0.5-0.1-1.2-0.1-1.9c0-0.8,0.1-1.6,0.2-2c0.2-0.9,1-2.7,1.4-3.6c0.2-0.3,0.3-0.7,0.3-0.8c0-0.1,0.1-0.2,0.2-0.4
			c0.2-0.2,0.5-0.6,0.9-1.6c0.1-0.3,0.4-0.6,0.4-0.7c0.1-0.1,0.2-0.2,0.2-0.3c0-0.1,0-0.1-0.1-0.1H140c-0.1,0-0.2,0-0.2-0.1
			s-0.1-0.2-0.1-0.2c0-0.1,0-0.2,0.2-0.4c0.1-0.2,0.4-0.5,0.6-0.6c0.2-0.1,0.4-0.3,0.4-0.4c0-0.1,0.2-0.2,0.4-0.3
			c0.7-0.3,1.4-0.5,2-0.5c0.5,0,1,0.1,1.5,0.3c0.4,0.1,0.7,0.3,0.8,0.3c0.2,0,1.7,0.8,2.1,1.2c1,0.9,1.3,1.3,1.5,1.8
			c0.1,0.3,0.2,0.6,0.2,0.7l0.4,0.9c0.2,0.6,0.3,1,0.3,2c0,1.1,0,1.3-0.4,1.9c-0.2,0.2-0.2,0.4-0.2,0.5l0,0l0,0l0.2-0.1
			c0,0.3-0.8,1.8-1.2,2.2c-0.4,0.5-0.7,0.9-1.3,2.2c-0.1,0.2-0.5,0.8-0.9,1.1c-0.4,0.4-0.7,0.9-0.8,1.1c0,0.1-0.4,0.6-0.8,1
			c-0.4,0.4-0.8,0.8-0.8,0.9c0,0.3-0.2,0.5-0.9,1c-0.4,0.3-0.9,0.4-1.3,0.4C141.5,142,141.3,141.9,141.1,141.9 M141.1,120.6
			c-0.9-0.2-1.2-0.2-1.7-0.9c-0.4-0.3-0.7-0.6-0.8-0.6l-0.1-0.1l0-0.2c0-0.2-0.2-0.5-0.5-1c-0.2-0.2-0.3-0.3-0.3-0.5l0.1-0.5
			c0.1-0.2,0.1-0.6,0.1-0.8l0.2-0.7c0.2-0.3,0.2-0.6,0.2-0.7c0-0.1,0.1-0.5,0.2-1c0.2-0.5,0.3-0.7,0.5-0.7l1.4,0.4
			c0.4,0.1,0.5,0.2,0.5,0.2c0,0.2,0.1,0.2,0.4,0.2l0.3-0.1l0.1,0.1c0,0.1,0.2,0.2,0.5,0.4c0.6,0.3,0.8,0.5,1.5,1.6l0.4,0.7l-0.5,1.7
			c0,0.3-0.1,0.7-0.2,0.7c-0.1,0-0.1,0.2-0.1,0.3c0,0.1-0.1,0.4-0.1,0.4l-0.3,0.6c-0.1,0.2-0.1,0.4-0.4,0.4c-0.2,0-0.4-0.1-0.5-0.2
			c0-0.1-0.1-0.1-0.1-0.1c-0.1,0-0.1,0.1-0.1,0.2c0,0.1-0.1,0.2-0.2,0.2L141.1,120.6z M143.2,136.7c0.6-0.6,1-1.1,1-1.2
			c0-0.1,0.3-0.4,0.6-0.8c0.3-0.3,0.8-0.9,0.9-1.3c0.2-0.4,0.4-0.6,0.4-0.6c0,0,0.3-0.4,0.5-0.8c0.2-0.4,0.5-0.7,0.5-0.8
			c0.1,0,0.1-0.1,0.1-0.2c0-0.1,0.1-0.3,0.3-0.6c0.4-0.4,0.4-0.5,0.4-1.6c0-1-0.1-1.3-0.3-1.5c-0.1-0.2-0.4-0.5-0.5-0.8
			c-0.2-0.5-0.8-0.9-1.1-0.9c-0.1,0-0.1,0-0.2,0.1c-0.1,0.1-0.1,0.3-0.1,0.5c0,0.5-0.4,1.2-0.8,1.7c-0.2,0.2-0.7,1-1,1.7
			c-0.3,0.7-0.6,1.4-0.8,1.6c-0.1,0.2-0.2,0.6-0.2,0.9s0,0.6-0.1,0.6c-0.1,0.1-0.9,2-1.2,2.9c-0.1,0.4-0.2,1.1-0.2,1.7
			c0,0.4,0,0.6,0.1,0.6h0.1C141.9,138,142.2,137.8,143.2,136.7 M149.1,120.6c-0.9-0.2-1.2-0.2-1.7-0.9c-0.4-0.3-0.7-0.6-0.8-0.6
			l-0.1-0.1l0-0.2c0-0.2-0.2-0.5-0.5-1c-0.2-0.2-0.3-0.3-0.3-0.5l0.1-0.5c0.1-0.2,0.1-0.6,0.1-0.8l0.2-0.7c0.2-0.3,0.2-0.6,0.2-0.7
			c0-0.1,0.1-0.5,0.2-1c0.2-0.5,0.3-0.7,0.5-0.7l1.4,0.4c0.4,0.1,0.5,0.2,0.5,0.2c0,0.2,0.1,0.2,0.4,0.2l0.3-0.1l0.1,0.1
			c0,0.1,0.2,0.2,0.5,0.4c0.6,0.3,0.8,0.5,1.5,1.6l0.4,0.7l-0.5,1.7c0,0.3-0.1,0.7-0.2,0.7c-0.1,0-0.1,0.2-0.1,0.3
			c0,0.1-0.1,0.4-0.1,0.4l-0.3,0.6c-0.1,0.2-0.1,0.4-0.4,0.4c-0.2,0-0.4-0.1-0.5-0.2c0-0.1-0.1-0.1-0.1-0.1c-0.1,0-0.1,0.1-0.1,0.2
			c0,0.1-0.1,0.2-0.2,0.2L149.1,120.6z"/>
	</g>
	<g>
		<defs>
			<rect id="SVGID_33_" width="174" height="205"/>
		</defs>
		<clipPath id="SVGID_34_">
			<use xlink:href="#SVGID_33_"  style="overflow:visible;"/>
		</clipPath>
		<path class="st16" d="M152.8,142.4c-0.1,0-0.5-0.1-0.9-0.1c-1.2-0.1-2.2-0.7-2.8-1.9c-0.2-0.4-0.3-0.6-0.3-1l0-0.6
			c0-0.6,0.2-1.3,0.3-1.6c0.1-0.3,0.3-0.9,0.4-1.4c0.1-0.4,0.3-0.9,0.4-1.1s0.3-0.7,0.4-1.2l0.9-2.4c0.3-0.8,0.7-1.7,0.8-2l0.7-1.9
			c0.3-0.7,0.5-1.4,0.5-1.5c0-0.1,0.1-0.2,0.1-0.2c0.1,0,0.1-0.1,0.1-0.3c0-0.1,0.1-0.3,0.1-0.4c0.1-0.1,0.2-0.3,0.4-0.5
			c0.3-0.7,0.6-1,0.9-1c0.1,0,0.2,0.1,0.3,0.2c0.1,0.1,0.2,0.2,0.3,0.2h0c0.1,0,0.3,0.1,0.5,0.2c0.1,0.1,0.3,0.2,0.4,0.2l0.5-0.1
			l0.1,0c0,0,0.2,0.1,0.3,0.1h0c0.3,0,1.3,0.8,1.5,1.3l0.1,0.4c0,0.4-0.1,0.8-0.4,1.2c-0.1,0.1-0.2,0.6-0.4,1s-0.3,0.9-0.4,1.1
			c-0.2,0.3-1.4,3.5-1.4,3.6c0,0.1-0.1,0.4-0.3,0.7c-0.4,0.8-1.9,5.4-1.9,5.9v0.1c0,0,0,0,0,0l0.2-0.1c0.1-0.1,0.3-0.3,0.3-0.4
			c0.1-0.3,2.3-3.5,2.7-3.9c0.1-0.1,0.2-0.4,0.2-0.5c0-0.1,0.1-0.2,0.2-0.2c0.1-0.1,0.2-0.1,0.2-0.2c0-0.1,0.8-1.3,0.9-1.4
			c0.1,0,0.2-0.4,0.4-0.7c0.2-0.3,0.6-0.9,1-1.3c0.4-0.4,0.6-0.8,0.6-0.9c0-0.1,0.6-0.8,1.5-1.7c1.4-1.4,1.5-1.6,1.9-1.6
			c0.3,0,0.6,0,0.6,0.1c0.1,0.1,0.5,0.2,1,0.2l0.8,0c0.1,0,0.2,0,0.3,0.1s0.1,0.1,0.2,0.1h0.1c0.2,0,0.6,0.3,0.9,0.9
			c0.1,0.2,0.2,0.5,0.2,0.9c0,0.8-0.4,1.9-1.2,4c-0.3,0.8-0.6,1.6-0.6,1.8l-0.2,0.5c-0.2,0.2-0.6,1.3-0.6,1.5v0
			c0.1,0,0.5-0.3,0.9-0.7c0.4-0.4,2.5-2.1,2.7-2.2c0.5-0.3,1.1-0.9,1.3-1c0.2-0.1,0.5-0.2,0.6-0.4l0.1,0c0.2,0,0.4,0.2,0.4,0.4v0
			c0,0.1-0.1,0.2-0.2,0.2c-0.1,0-1.2,1.3-1.7,1.8c-0.5,0.5-2.7,2.4-3,2.7c-0.3,0.3-0.6,0.7-0.9,1c-0.5,0.6-1.5,1.7-1.7,1.7
			c-0.1,0-0.2,0.1-0.3,0.3c-0.1,0.2-0.2,0.4-0.3,0.4c0,0-0.1,0.2-0.2,0.4c-0.3,0.6-1,1-1.7,1c-0.2,0-0.4,0-0.5-0.1l-0.8-0.3
			c-0.5-0.2-1.1-0.9-1.4-1.8c-0.1-0.3-0.1-0.8-0.1-1.3c0-0.9,0.2-2,0.5-2.8c0.2-0.5,0.5-0.9,0.6-1c0.1-0.1,0.2-0.3,0.2-0.4
			s0.2-0.4,0.4-0.8c0.2-0.4,0.4-0.8,0.4-1c0.1-0.2,0.1-0.4,0.2-0.4c0.1,0,0.1-0.1,0.1-0.2c0-0.1,0.2-0.6,0.5-1.1
			c0.3-0.6,0.6-1.5,0.6-1.9c0-0.1,0-0.1-0.1-0.1c-0.1,0-0.9,0.9-0.9,1v0.1c0,0.1-0.1,0.1-0.2,0.2c-0.4,0.2-1.6,1.8-2.9,3.9
			c-0.6,1.1-1.4,2.2-1.6,2.4c-0.2,0.2-0.5,0.7-0.7,1c-0.2,0.3-0.4,0.7-0.5,0.8c-0.1,0.1-0.2,0.2-0.2,0.3c0,0.1-0.3,0.5-0.6,0.9
			c-0.3,0.4-0.7,1-0.8,1.1C154.3,141.4,153.2,142.4,152.8,142.4L152.8,142.4z"/>
	</g>
</g>
</svg>
